<svg id="Capa_1" data-name="Capa 1" xmlns="http://www.w3.org/2000/svg" viewBox="0 0 96.47 97.138">
  <defs>
    <style>
      .cls-1 {
        fill: #fbb700;
      }

      .cls-2 {
        fill: #1980bd;
      }

      .cls-3 {
        fill: #383838;
      }
    </style>
  </defs>
  <title>aa6ba1c7-4fe7-4919-8b82-c120e0c342a7</title>
  <g>
    <path class="cls-1" d="M22.149,70.078a6.674,6.674,0,0,1-6.638,6.638,6.593,6.593,0,0,1-6.638-6.638,6.674,6.674,0,0,1,6.638-6.638A6.759,6.759,0,0,1,22.149,70.078Z" transform="translate(-1.772 -1)"/>
    <path class="cls-2" d="M53.369,1A37.858,37.858,0,1,0,91.226,38.858,37.858,37.858,0,0,0,53.369,1Zm3.278,40.814-.017,9.655,1.052,0a2.6,2.6,0,0,1-.009,5.2l-1.052,0-.007,3.479,2.888,0a2.6,2.6,0,0,1-.01,5.2l-2.9-.005a3.639,3.639,0,0,1-7.277-.1l.043-23.8a14.583,14.583,0,1,1,7.285.372Z" transform="translate(-1.772 -1)"/>
  </g>
  <path class="cls-3" d="M9.758,95.689a4.039,4.039,0,0,1-3.74,2.426,4.385,4.385,0,0,1-.011-8.766,4.136,4.136,0,0,1,3.751,2.472H8.779a3.254,3.254,0,0,0-2.772-1.636,3.554,3.554,0,0,0,0,7.1,3.294,3.294,0,0,0,2.772-1.591Z" transform="translate(-1.772 -1)"/>
  <path class="cls-3" d="M10.934,89.5h.814v8.469h-.814Z" transform="translate(-1.772 -1)"/>
  <path class="cls-3" d="M19.263,97.966h-.814V96.7a2.611,2.611,0,0,1-2.421,1.442,3.256,3.256,0,0,1,0-6.5A2.591,2.591,0,0,1,18.448,93.1V91.809h.814Zm-5.5-3.067a2.362,2.362,0,0,0,2.376,2.449,2.22,2.22,0,0,0,2.135-1.5,2.438,2.438,0,0,0,.2-.973,2.407,2.407,0,0,0-2.354-2.46,2.37,2.37,0,0,0-2.354,2.472Z" transform="translate(-1.772 -1)"/>
  <path class="cls-3" d="M23.243,97.966H22.4l-2.332-6.157h.858l1.9,5.115,1.892-5.115h.858Z" transform="translate(-1.772 -1)"/>
  <path class="cls-3" d="M26.466,89.5h.814v1.179h-.814Zm0,2.312h.814v6.157h-.814Z" transform="translate(-1.772 -1)"/>
  <path class="cls-3" d="M31.526,93.354a.945.945,0,0,0-1.012-1.019.955.955,0,0,0-1.023,1c.022.583.451.824,1.166,1.042.848.24,1.794.492,1.838,1.808a1.876,1.876,0,0,1-1.958,1.957,1.929,1.929,0,0,1-2.024-1.923h.8a1.192,1.192,0,0,0,1.232,1.225,1.117,1.117,0,0,0,1.144-1.156c-.021-.7-.462-.984-1.484-1.293-.848-.263-1.508-.618-1.529-1.591a1.735,1.735,0,0,1,1.848-1.762,1.7,1.7,0,0,1,1.8,1.717Z" transform="translate(-1.772 -1)"/>
  <path class="cls-3" d="M44.616,95.689a4.039,4.039,0,0,1-3.74,2.426,4.385,4.385,0,0,1-.011-8.766,4.137,4.137,0,0,1,3.751,2.472h-.979a3.254,3.254,0,0,0-2.772-1.636,3.554,3.554,0,0,0,0,7.1,3.294,3.294,0,0,0,2.772-1.591Z" transform="translate(-1.772 -1)"/>
  <path class="cls-3" d="M45.43,94.876a3.246,3.246,0,1,1,0,.011Zm.8.023a2.47,2.47,0,1,0,0-.012Z" transform="translate(-1.772 -1)"/>
  <path class="cls-3" d="M52.932,91.809H53.7c0,.343,0,.687-.012,1.1a2.2,2.2,0,0,1,2.2-1.271c1.837.023,2.486,1.328,2.486,2.827v3.5h-.8v-3.33c0-1.328-.572-2.232-1.9-2.209a1.835,1.835,0,0,0-1.925,2.06v3.479h-.814Z" transform="translate(-1.772 -1)"/>
  <path class="cls-3" d="M62.612,93.354A.945.945,0,0,0,61.6,92.336a.955.955,0,0,0-1.023,1c.022.583.451.824,1.166,1.042.848.24,1.794.492,1.838,1.808a1.876,1.876,0,0,1-1.958,1.957A1.929,1.929,0,0,1,59.6,96.215h.8a1.192,1.192,0,0,0,1.232,1.225,1.117,1.117,0,0,0,1.144-1.156c-.021-.7-.462-.984-1.484-1.293-.848-.263-1.508-.618-1.529-1.591a1.735,1.735,0,0,1,1.848-1.762,1.7,1.7,0,0,1,1.8,1.717Z" transform="translate(-1.772 -1)"/>
  <path class="cls-3" d="M70.346,97.966h-.771v-1.1a2.194,2.194,0,0,1-2.189,1.271c-1.848-.035-2.5-1.339-2.5-2.838v-3.49h.8v3.33c0,1.328.572,2.22,1.9,2.208a1.838,1.838,0,0,0,1.937-2.06V91.809h.814Z" transform="translate(-1.772 -1)"/>
  <path class="cls-3" d="M71.928,89.5h.814v8.469h-.814Z" transform="translate(-1.772 -1)"/>
  <path class="cls-3" d="M74.778,92.484H73.612v-.675h1.166V89.5h.8v2.312h1.3v.675h-1.3v5.482h-.8Z" transform="translate(-1.772 -1)"/>
  <path class="cls-3" d="M77.076,94.876a3.246,3.246,0,1,1,0,.011Zm.8.023a2.47,2.47,0,1,0,0-.012Z" transform="translate(-1.772 -1)"/>
  <path class="cls-3" d="M84.578,91.809h.771v1.007a2,2,0,0,1,1.892-1.179v.835h-.076c-1.145,0-1.782.744-1.782,2.14v3.353h-.8Z" transform="translate(-1.772 -1)"/>
  <path class="cls-3" d="M88.066,95.128a2.292,2.292,0,0,0,2.311,2.278,2.18,2.18,0,0,0,2.035-1.271h.847a3.226,3.226,0,0,1-1.2,1.5,3.008,3.008,0,0,1-1.683.5,3.253,3.253,0,0,1-.012-6.5,3.037,3.037,0,0,1,2.168.87,3.276,3.276,0,0,1,.924,2.621Zm4.588-.675a2.3,2.3,0,0,0-4.577,0Z" transform="translate(-1.772 -1)"/>
  <path class="cls-3" d="M97.272,93.354a.945.945,0,0,0-1.012-1.019.955.955,0,0,0-1.023,1c.022.583.451.824,1.166,1.042.848.24,1.794.492,1.838,1.808a1.876,1.876,0,0,1-1.958,1.957,1.929,1.929,0,0,1-2.024-1.923h.8a1.192,1.192,0,0,0,1.232,1.225,1.117,1.117,0,0,0,1.144-1.156c-.021-.7-.462-.984-1.484-1.293-.848-.263-1.508-.618-1.529-1.591a1.735,1.735,0,0,1,1.848-1.762,1.7,1.7,0,0,1,1.8,1.717Z" transform="translate(-1.772 -1)"/>
</svg>
