<?xml version="1.0" encoding="UTF-8" standalone="no"?>
<!DOCTYPE svg PUBLIC "-//W3C//DTD SVG 1.1//EN" "http://www.w3.org/Graphics/SVG/1.1/DTD/svg11.dtd">
<svg version="1.1" xmlns="http://www.w3.org/2000/svg" xmlns:xlink="http://www.w3.org/1999/xlink" preserveAspectRatio="xMidYMid meet" viewBox="0 0 400 500" width="400" height="500"><defs><path d="M200 300C117.21 300 50 232.78 50 150C50 67.21 117.21 0 200 0C282.78 0 350 67.21 350 150C350 232.78 282.78 300 200 300Z" id="b1B6pwmNk5"></path><path d="M200 200C172.41 200 150 177.59 150 150C150 122.4 172.41 100 200 100C227.6 100 250 122.4 250 150C250 177.59 227.6 200 200 200Z" id="a2ENkN1Cc"></path><path d="M208.65 300L208.65 500L188.65 500L188.65 300L208.65 300Z" id="fcRD5GLCf"></path></defs><g><g><g><use xlink:href="#b1B6pwmNk5" opacity="1" fill="#007dba" fill-opacity="1"></use><g><use xlink:href="#b1B6pwmNk5" opacity="1" fill-opacity="0" stroke="#000000" stroke-width="1" stroke-opacity="0"></use></g></g><g><use xlink:href="#a2ENkN1Cc" opacity="1" fill="#000000" fill-opacity="1"></use><g><use xlink:href="#a2ENkN1Cc" opacity="1" fill-opacity="0" stroke="#000000" stroke-width="1" stroke-opacity="0"></use></g></g><g><use xlink:href="#fcRD5GLCf" opacity="1" fill="#000000" fill-opacity="1"></use><g><use xlink:href="#fcRD5GLCf" opacity="1" fill-opacity="0" stroke="#000000" stroke-width="1" stroke-opacity="0"></use></g></g></g></g></svg>