<svg id="Capa_1" data-name="Capa 1" xmlns="http://www.w3.org/2000/svg" viewBox="0 0 32 32"><defs><style>.cls-1{fill:#1f80c1;}</style></defs><path class="cls-1" d="M4.2,23.61v-7.4C4.2,16,4.2,16,4,16h-3c-.12,0-.24,0-.29-.13a.28.28,0,0,1,.11-.32L15.89.35c.12-.12.17-.06.25,0L26.62,10.85l4.6,4.59.09.1c.08.08.14.16.09.28a.25.25,0,0,1-.27.14H28.06c-.24,0-.24,0-.24.23V31a.71.71,0,0,1-.54.75l-.19,0H20.15c-.15,0-.18-.05-.18-.19q0-3.58,0-7.17a.5.5,0,0,0-.52-.53q-3.45,0-6.9,0a.49.49,0,0,0-.53.55c0,1.4,0,2.8,0,4.2,0,1,0,2,0,2.95,0,.16,0,.19-.2.19-2.29,0-4.58,0-6.88,0A.76.76,0,0,1,4.2,31C4.21,28.52,4.2,26.07,4.2,23.61Z"/></svg>