<?xml version="1.0" encoding="UTF-8"?>
<svg id="Capa_1" data-name="Capa 1" xmlns="http://www.w3.org/2000/svg" version="1.1" viewBox="0 0 32 32">
  <defs>
    <style>
      .cls-1 {
        fill: #1b81be;
        stroke-width: 0px;
      }
    </style>
  </defs>
  <path class="cls-1" d="M29.44,13.05l-3.79-3.25V2.83c0-1.23-1-2.23-2.23-2.23h-14.9c-1.23,0-2.23,1-2.23,2.23v7.04l-3.73,3.21h0s0,14.12,0,14.12c0,2.32,1.89,4.21,4.21,4.21h18.47c2.32,0,4.21-1.89,4.21-4.21v-14.14h0ZM12.23,12.47h2.81c.02.21.12,1.17.97,1.17.41,0,.94-.33.94-.97,0-.56-.29-1.01-1.51-1.46-1.34-.49-3.11-1.14-3.11-3.41,0-2.02,1.38-2.97,2.63-3.32v-1.65h2.22v1.65c1.31.31,2.32,1.4,2.28,3.13h-2.54c-.02-.24-.08-1.04-.91-1.04-.55,0-.89.44-.89.93,0,.84.78,1.13,2.22,1.68,2.04.78,2.42,2.3,2.42,3.16,0,.28-.04,2.5-2.58,3.34v1.73h-2.22v-1.66c-.51-.11-1.35-.29-2.01-1.11-.4-.53-.73-1.3-.73-1.98v-.18ZM3.78,13.84l2.5-2.16v3.7l-2.5-1.54ZM25.23,30.03H6.77c-1.57,0-2.84-1.27-2.84-2.84v-11.66l22.79,14.07c-.43.27-.94.42-1.49.42ZM28.07,27.2c0,.51-.14.99-.37,1.4l-10.15-6.27,10.52-6.77v11.63ZM25.66,15.49v-3.88l2.58,2.22-2.58,1.66Z"/>
</svg>