<svg id="Capa_1" data-name="Capa 1" xmlns="http://www.w3.org/2000/svg" viewBox="0 0 32 32"><defs><style>.cls-1{fill:#1680c1;}</style></defs><path class="cls-1" d="M32,23.5c0-.06,0-.09-.08-.1l-.26,0-1.5-.3a.15.15,0,0,1-.13-.12,5.43,5.43,0,0,0-.48-1.17.23.23,0,0,1,0-.25l1-1.43c0-.06,0-.09,0-.13l-1.43-1.44s-.07,0-.12,0l-1.47,1a.17.17,0,0,1-.2,0A5.55,5.55,0,0,0,26.1,19a.16.16,0,0,1-.14-.14c-.11-.58-.23-1.16-.35-1.74,0-.07,0-.09-.11-.09h-2c-.07,0-.1,0-.11.09L23,18.86a.14.14,0,0,1-.11.13,5.71,5.71,0,0,0-1.2.49.17.17,0,0,1-.2,0l-1.47-1c-.05,0-.07,0-.11,0L18.48,20s0,.06,0,.1l1,1.48a.17.17,0,0,1,0,.22A4.8,4.8,0,0,0,19,22.92a.17.17,0,0,1-.15.13l-1.74.35c-.07,0-.08,0-.08.1v2c0,.07,0,.09.08.1l1.72.34a.21.21,0,0,1,.18.17,4.73,4.73,0,0,0,.47,1.14.18.18,0,0,1,0,.23c-.32.48-.64,1-1,1.45a.09.09,0,0,0,0,.13l1.44,1.43c.05,0,.08,0,.13,0l1.46-1a.18.18,0,0,1,.21,0,4.73,4.73,0,0,0,1.16.48.2.2,0,0,1,.16.18c.11.58.23,1.15.34,1.72,0,.06,0,.08.1.08h1.93c.17,0,.17,0,.21-.17L26,30.2a.2.2,0,0,1,.16-.18,5.45,5.45,0,0,0,1.15-.47.17.17,0,0,1,.22,0c.49.32,1,.64,1.46,1,.05,0,.08,0,.12,0,.47-.48.95-1,1.43-1.43a.1.1,0,0,0,0-.15c-.32-.48-.64-1-1-1.45a.17.17,0,0,1,0-.2A6.08,6.08,0,0,0,30,26.14.19.19,0,0,1,30.2,26l1.73-.34c.05,0,.07,0,.07-.08v-2Zm-7.5,3.62a2.61,2.61,0,1,1,2.62-2.61A2.6,2.6,0,0,1,24.5,27.12Z"/><path class="cls-1" d="M15.64,30a14.11,14.11,0,0,1-3.4-.52c-.28-.42.17-.72.24-1.07-.34-.17-.31-.16-.19-.49a2.93,2.93,0,0,0,.12-.71,2.18,2.18,0,0,1,.42-.44c.63-.38.64-.37.36-.91l.55.12.27-.4a2.2,2.2,0,0,0,.46-.88.82.82,0,0,1,.64-.75,1,1,0,0,0,.76-1,1.79,1.79,0,0,1,.52-1.26c.23-.25.13-.53-.2-.65l-.67-.24-.73-.26a4.72,4.72,0,0,0-.67-.08l-.31,0c.22-.48-.05-.89-.66-1a1.55,1.55,0,0,1-.52-.19c-.33-.18-.5-.66-1.06-.42-.06,0-.18-.05-.27-.08-.74-.27-1.05-.19-1.51.33A2.39,2.39,0,0,0,9.22,19c-.39,0-.52-.13-.46-.43S8.69,18,8.1,18c.1-.3.18-.56.26-.81l-.08-.09c-.17.1-.34.22-.53.31a1.49,1.49,0,0,1-.58.2c-.11,0-.28-.2-.31-.33a1.27,1.27,0,0,1,0-.67c.22-.76.24-.76,1.2-.79a.35.35,0,0,0,.14,0c.58-.26.88-.13,1,.42a1.59,1.59,0,0,0,.18.3l.13,0c0-.17.07-.35,0-.49a.66.66,0,0,1,.44-.93.62.62,0,0,0,.43-.83c.09,0,.23,0,.25-.09.19-.41.81-.45,1-.9a.6.6,0,0,1,.49-.2c.4.25.62-.07.92-.16-.09-.28-.84-.28-.26-.77h-.39l1.72-.5h0a1,1,0,0,0,0-.39c-.15-.32-.34-.63-.5-1-.08-.17-.14-.34-.22-.53l-.62.47c0-.26-.1-.43,0-.56a.47.47,0,0,0-.35-.6c-.27-.1-.62-.11-.7.28,0,.13-.08.25-.1.38a2.11,2.11,0,0,1-.58,1.42,1.3,1.3,0,0,0-.22.44h-.21l-.08-.8L9.33,10.1a1.9,1.9,0,0,1,0-.67c.28-.68,1-1,1.63-1.33.11-.06,0-.25.34-.24A.74.74,0,0,0,12,6.78c-.08,0-.18,0-.22.1-.17.21-.32.42-.47.64A2.52,2.52,0,0,1,11.2,6c-.56.33-.49.34-.57.78,0,.26-.35.47-.53.71l0,0,.08-.36a.55.55,0,0,1-.89-.2c-.11-.19-.21-.17-.32,0l-.23.37s-.06,0-.1.06L8.52,7,8,6.91c.06-.16.16-.35.12-.38-.27-.19-.58-.36-.87-.53l-.35-.24c-.12,0-.19-.08-.23-.07l-.13,0A13.93,13.93,0,0,1,26.9,7.25l-.48-.12.07.18c-.06,0-.12.15-.21,0s-.06,0-.1,0c-.19,0-.39.16-.58,0h0a2.82,2.82,0,0,0-.69.24c-.06.05-.19,0-.29,0s-.06-.07,0-.1l.08,0v0l-.21,0a1,1,0,0,0,0,.19c0,.11,0,.13-.1.14a1.86,1.86,0,0,0-.34.06s-.07,0-.07.07-.07.11-.14.1a1.83,1.83,0,0,1-.25-.06s.07.07.09.09a.14.14,0,0,1,0,.09c-.09.05-.4-.1-.39-.2s-.05-.15-.13-.19l-.07,0a1.77,1.77,0,0,1,.33,0,1.14,1.14,0,0,0,.58,0s.08,0,.08-.08A.13.13,0,0,0,24,7.47c-.23-.07-.46-.15-.7-.21l-.51-.09s-.05,0-.07-.07l0,0h-.59s0,0,0,0l-.31.08c-.1,0-.22.1-.3.07a.28.28,0,0,0-.27,0c-.09.06-.16.13-.28.08l-.08,0,.2,0,0,.11s-.09,0-.11,0a1.18,1.18,0,0,0-.32.26c-.09.16-.25.23-.38.34s0,0-.07,0-.3.13-.44.21a.16.16,0,0,0-.05.16c0,.09,0,.08.05.13a.39.39,0,0,0,.08.21.25.25,0,0,0,.3,0,.4.4,0,0,1,.15-.09c.06,0,.15,0,.17,0s.14.26.21.38.09.08.12.07A.71.71,0,0,0,21,9.1.16.16,0,0,0,21.06,9a.26.26,0,0,1,.17-.24s.1-.06.1-.1,0-.08-.09-.11-.15-.2,0-.3a3,3,0,0,1,.3-.19.27.27,0,0,0,.12-.09.38.38,0,0,1,.44-.2c.08,0,.11.08,0,.14l-.34.21a.26.26,0,0,0-.1.13,2.25,2.25,0,0,0,0,.34H22c.12,0,.23-.05.35-.06a.32.32,0,0,1,.31.1,4.29,4.29,0,0,1-.5.07.84.84,0,0,0-.41.14l.13,0a.26.26,0,0,1,.13.06A.17.17,0,0,1,22,9c-.05.08-.12,0-.17,0s-.18,0-.21.1,0,.08,0,.12-.18.25-.27.2a.49.49,0,0,0-.36,0,.37.37,0,0,1-.25,0,.29.29,0,0,0-.24,0c-.14.05-.22,0-.26-.15h.06a.79.79,0,0,1,0-.13,1.68,1.68,0,0,1,0-.2c-.26.09-.28.12-.23.28s.08.24-.16.29-.22,0-.25.07a.61.61,0,0,1-.36.31s0,0-.05.06a.38.38,0,0,1-.31.17.19.19,0,0,0-.08,0,.77.77,0,0,1-.16.07h-.2v0l.11.06a.41.41,0,0,1,.29.53.14.14,0,0,1-.19.13l-.58,0c-.16,0-.19.06-.16.21a.56.56,0,0,1,0,.29.53.53,0,0,0,0,.28c0,.15.12.13.22.14h0c.1.17.22.08.35,0s.06,0,.09,0a.37.37,0,0,0,.35-.35.23.23,0,0,1,0-.1l.26-.21s.1-.09.11-.14.07-.2.18-.16a.48.48,0,0,0,.46-.09c.12-.08.2,0,.29.08a1.43,1.43,0,0,0,.23.26l.31.19a.26.26,0,0,1,.15.31.31.31,0,0,0,.07-.14c0-.07,0-.14,0-.24a1.58,1.58,0,0,1-.3-.17,1.8,1.8,0,0,1-.26-.29.15.15,0,0,1,0-.22c.09-.06.12,0,.15.06l0,0a1.33,1.33,0,0,0,.52.35.24.24,0,0,1,.16.2.73.73,0,0,0,.07.24c.05.11.17.16.18.31s.07.13.15,0a.8.8,0,0,1,.13-.13l-.2-.3c.19,0,.34-.19.52,0l-.05.15.09,0,0,.13.09.13c.08.12.28.21.35.14s.15-.06.23,0a.18.18,0,0,0,.22,0,.54.54,0,0,1,.21-.05s.06,0,.08,0l.13-.05c.16,0,.31,0,.47,0s.44-.06.57.18c0,0,.06.11,0,.15s0,.21.08.29a.33.33,0,0,1,.16.26c0,.05.08.13.11.13s.2.07.25.18.23.24.38.32a.31.31,0,0,0,.21,0c.09-.06.14,0,.17.06s.09.11.18.13a2.11,2.11,0,0,0,.83,0,.2.2,0,0,1,.2.09.56.56,0,0,0,.4.31l-.13.12c.07.05.13.13.18.13s.15-.08.23-.12a.12.12,0,0,1,0,.07,5.16,5.16,0,0,0,.1.67c.11.38.25.75.39,1.12,0,0,.06.08.09.11a.94.94,0,0,0,.3-.88.23.23,0,0,1,.14-.26.49.49,0,0,0,.14-.11l.41-.41c.06-.06.1-.13.15-.19s.08-.1.13-.11h0A12.79,12.79,0,0,1,30,15.65a3.05,3.05,0,0,1,1.21.74l.75.75c0-.38.06-.75.06-1.14A16,16,0,1,0,16,32c.38,0,.75,0,1.12-.06l-.74-.73A3.23,3.23,0,0,1,15.64,30ZM24,11.35a2.41,2.41,0,0,1-.53-.07.59.59,0,0,0-.55,0,.33.33,0,0,1-.37,0,.18.18,0,0,1-.07-.29c.08-.13.17-.25.25-.37s.13-.14.24-.07a.43.43,0,0,0,.14,0l.08.24a.55.55,0,0,1,.71.09c.06.05.13.08.18.13s.1.13.08.18A.2.2,0,0,1,24,11.35Zm1.63.58c0,.08-.27.08-.36,0s-.08-.06-.13-.08a.18.18,0,0,1-.09-.27.71.71,0,0,1,.07-.15c-.12-.21-.23-.39-.32-.58s0-.16.11-.2a1.28,1.28,0,0,1,.25-.15.75.75,0,0,1,.26,0,.16.16,0,0,1,.13.11.13.13,0,0,1-.12.15c-.05,0-.1.08-.15.12s0,0,0,0c.26.18.23.51.36.76A.37.37,0,0,1,25.63,11.93ZM2,16A13.88,13.88,0,0,1,3.79,9.17h0v.6l-.27.34.1.07L3.86,10c.05.51.1,1,.14,1.42H3.64c.63.47.3,1,.16,1.43a1.47,1.47,0,0,1-.14.28,1.5,1.5,0,0,0,.12,1.73A4.25,4.25,0,0,1,4.38,16c.14.31.32.61.48.91l.1-.05-.53-1.42a9.34,9.34,0,0,1,.88,1.27,1.07,1.07,0,0,1,.21.37,1.59,1.59,0,0,0,1.35,1,2.27,2.27,0,0,1,1.38.65c.3.23.55.49.8.72l.4-.22c.06.11.2.25.17.35a4.65,4.65,0,0,1-.3.69,4.19,4.19,0,0,0-.22.59c-.12.53.34.87.58,1.28a2.12,2.12,0,0,0,.7.83,1,1,0,0,1,.56,1c0,.86-.07,1.72-.08,2.58a1.2,1.2,0,0,0,.14.71.78.78,0,0,1,0,1c.15.33.3.64.45,1A14,14,0,0,1,2,16Z"/></svg>