<svg id="Capa_1" data-name="Capa 1" xmlns="http://www.w3.org/2000/svg" viewBox="0 0 32 32"><defs><style>.cls-1{fill:#1680c1;}</style></defs><path class="cls-1" d="M16.11.06a16,16,0,1,0,16,16A16,16,0,0,0,16.11.06ZM7.19,21.34H5.11V13.52A7.16,7.16,0,0,1,2.43,15.1V13.21a5.84,5.84,0,0,0,1.77-1,3.77,3.77,0,0,0,1.3-1.73H7.19Zm11.23-1.92v1.92H11.15a4.9,4.9,0,0,1,.7-2.07,14,14,0,0,1,2.34-2.59,15.53,15.53,0,0,0,1.72-1.78,2.3,2.3,0,0,0,.43-1.27A1.43,1.43,0,0,0,16,12.57a1.57,1.57,0,0,0-2.06,0,2,2,0,0,0-.44,1.3l-2.07-.2a3.39,3.39,0,0,1,1.16-2.46A3.87,3.87,0,0,1,15,10.47a3.51,3.51,0,0,1,2.52.87,2.83,2.83,0,0,1,.92,2.15,3.85,3.85,0,0,1-.26,1.39,6.08,6.08,0,0,1-.83,1.38A14.9,14.9,0,0,1,16,17.64c-.66.6-1.07,1-1.25,1.2a4,4,0,0,0-.42.58Zm7.52,2.11a3.59,3.59,0,0,1-2.44-.85,3.27,3.27,0,0,1-1.12-2.21l2-.24a1.93,1.93,0,0,0,.52,1.17,1.45,1.45,0,0,0,2.1-.08A1.91,1.91,0,0,0,27.44,18,1.77,1.77,0,0,0,27,16.76a1.35,1.35,0,0,0-1-.45,3.76,3.76,0,0,0-.95.15l.23-1.69a1.86,1.86,0,0,0,1.29-.36,1.33,1.33,0,0,0,.44-1,1.18,1.18,0,0,0-.33-.88,1.17,1.17,0,0,0-.86-.32,1.25,1.25,0,0,0-.91.37,1.74,1.74,0,0,0-.46,1.08l-1.91-.33a4.22,4.22,0,0,1,.6-1.57,2.72,2.72,0,0,1,1.13-.92,3.8,3.8,0,0,1,1.61-.34,3.22,3.22,0,0,1,2.45,1,2.46,2.46,0,0,1-.8,4.07,2.53,2.53,0,0,1,1.49.9,2.59,2.59,0,0,1,.56,1.67,3.27,3.27,0,0,1-1,2.43A3.6,3.6,0,0,1,25.94,21.53Z"/></svg>