<svg id="Capa_1" data-name="Capa 1" xmlns="http://www.w3.org/2000/svg" viewBox="0 0 32 32"><defs><style>.cls-1{fill:#1f80c1;}</style></defs><path class="cls-1" d="M16.06,32H2.16c-.23,0-.24,0-.23-.23.05-.85.08-1.7.15-2.55a19.05,19.05,0,0,1,1.4-5.76,13.93,13.93,0,0,1,4.57-5.91,14.44,14.44,0,0,1,2.09-1.28.24.24,0,0,1,.27,0,10.61,10.61,0,0,0,4,1.51,10.49,10.49,0,0,0,2,.12,10.61,10.61,0,0,0,5.25-1.62.24.24,0,0,1,.26,0,13.84,13.84,0,0,1,6,5.82,16.66,16.66,0,0,1,1.71,4.78c.16.81.28,1.63.36,2.45s.1,1.66.13,2.48c0,.2,0,.2-.2.2Z"/><path class="cls-1" d="M23,7.05a7,7,0,1,1-7-7A7,7,0,0,1,23,7.05Z"/></svg>