<svg id="Capa_1" data-name="Capa 1" xmlns="http://www.w3.org/2000/svg" viewBox="0 0 32 32"><defs><style>.cls-1{fill:#1f80c1;}</style></defs><path class="cls-1" d="M5.84,0H20.07c0,.06,0,.13,0,.19v6c0,.23,0,.23.24.23h6.2c.1,0,.13,0,.12.13V31.27A.73.73,0,0,1,26,32H6a.64.64,0,0,1-.35-.12.79.79,0,0,1-.31-.72q0-15,0-30.08a1,1,0,0,1,.5-1ZM20.39,7.84c-.32,0-.62.06-.9.12A4.28,4.28,0,0,0,21,16.38a4.21,4.21,0,0,0,3.31-2.6,3.91,3.91,0,0,0,.31-1.43c0-.22,0-.23-.2-.23H20.63c-.24,0-.24,0-.24-.24v-4ZM9.93,23v5.42c0,.21,0,.21.21.21h1.41c.13,0,.18,0,.18-.18,0-.55,0-1.09,0-1.64v-9.2c0-.21,0-.21-.22-.21H10.15c-.22,0-.22,0-.22.21Zm7,1.25v4.21c0,.13,0,.18.17.17h1.45c.14,0,.18-.05.18-.18V20c0-.13,0-.18-.18-.18H17.12c-.21,0-.21,0-.21.21ZM23,11.64H25c.21,0,.23,0,.21-.22a5.36,5.36,0,0,0-.09-.7,4.29,4.29,0,0,0-4-3.39c-.14,0-.19,0-.19.18v3.94c0,.16.05.19.2.19Zm-7,17.8H9.15c-.13,0-.19,0-.18.18a5.42,5.42,0,0,1,0,.57c0,.13,0,.18.17.18a.48.48,0,0,1,.12,0H22.85c.1,0,.15,0,.15-.15s0-.35,0-.53,0-.24-.25-.24Zm-2.55-8a.71.71,0,0,0,0,.14q0,3.45,0,6.9c0,.14,0,.18.17.17H15c.2,0,.2,0,.2-.2v-7Zm8.77,3.71c0-1.11,0-2.23,0-3.34,0-.13,0-.17-.17-.17q-.74,0-1.47,0c-.13,0-.16,0-.16.17v6.68c0,.12,0,.16.16.16.48,0,1,0,1.45,0,.15,0,.19,0,.19-.19C22.21,27.31,22.22,26.2,22.22,25.1ZM10.75,10.65h3.81c.13,0,.17,0,.17-.17s0-.41,0-.62,0-.21-.2-.21H6.94c-.14,0-.19,0-.19.18s0,.41,0,.62,0,.19.2.19Zm0,3.45h3.78c.14,0,.21,0,.2-.19a3.11,3.11,0,0,1,0-.61c0-.16-.05-.19-.2-.19H6.94c-.14,0-.19,0-.19.18s0,.4,0,.6,0,.21.2.21Zm0-1.74h3.81c.13,0,.17,0,.17-.16s0-.43,0-.65,0-.15-.16-.15H6.92c-.13,0-.17,0-.16.17s0,.4,0,.6,0,.19.2.19Z"/><path class="cls-1" d="M26.59,5.2h-5.1c-.2,0-.2,0-.2-.2V.07L26.6,5.16Z"/></svg>