<svg id="Capa_1" data-name="Capa 1" xmlns="http://www.w3.org/2000/svg" viewBox="0 0 32 32"><defs><style>.cls-1{fill:#1f80c1;}</style></defs><path class="cls-1" d="M0,0H23.65a.43.43,0,0,1,.16,0,.21.21,0,0,1,.11.1,1.08,1.08,0,0,1,0,.18V3.75c0,.23,0,.23-.23.23H4.26C3.9,4,4,4,4,4.29Q3.93,16,4,27.74c0,.31,0,.29.28.29H23.75c.05,0,.11,0,.15,0a.22.22,0,0,1,.11.1s0,.08,0,.12v3.5c0,.23,0,.23-.24.23H0Z"/><path class="cls-1" d="M20,23.85V20.18c0-.19,0-.19-.2-.19H8.26C8,20,8,20,8,19.75V12.59c0-.22,0-.22.21-.22H19.75a.43.43,0,0,0,.16,0,.15.15,0,0,0,.1-.09.38.38,0,0,0,0-.15V8.05L32,16Z"/></svg>