<svg id="Capa_1" data-name="Capa 1" xmlns="http://www.w3.org/2000/svg" viewBox="0 0 32 32"><defs><style>.cls-1{fill:#1f80c1;}</style></defs><path class="cls-1" d="M0,31.44V4.49a.25.25,0,0,0,0-.07.52.52,0,0,1,.53-.36h19c.24,0,.32.07.32.3V16a.22.22,0,0,1-.14.22c-.29.18-.59.36-.87.55s-.58.45-.88.69V16.29c0-.23-.1-.33-.33-.34H2.28c-.23,0-.32.1-.32.33v1.36C2,18,2,18,2.33,18h15.1l-.11.14a8.46,8.46,0,0,0-1.11,1.6.3.3,0,0,1-.31.18H2.28c-.22,0-.32.1-.32.32v1.36c0,.32.06.38.37.38h13a1.55,1.55,0,0,0,0,.17c-.06.5-.12,1-.16,1.51,0,.24,0,.24-.24.24H2.27c-.22,0-.31.1-.31.32v1.38c0,.3.06.36.37.36H15.18c.16,0,.22,0,.26.19A8.68,8.68,0,0,0,18.75,31c.33.25.69.46,1,.7a.6.6,0,0,1-.43.13H.54a.53.53,0,0,1-.49-.33A.31.31,0,0,0,0,31.44ZM10,14h7.69c.25,0,.33-.08.33-.34V12.32c0-.25-.09-.33-.33-.35H2.27C2,12,2,12.07,2,12.3v1.39C2,14,2,14,2.3,14Zm0-4h7.71c.23,0,.32-.08.32-.31V8.31c0-.22-.09-.3-.3-.3H2.25C2,8,2,8.09,2,8.3V9.72C2,10,2,10,2.29,10Z"/><path class="cls-1" d="M31.9,23.94A7.93,7.93,0,1,1,24.17,16,7.92,7.92,0,0,1,31.9,23.94ZM19.53,23a1.07,1.07,0,0,0-1.11.67,1,1,0,0,0,.24,1.22l.91.93c.67.67,1.34,1.34,2,2a1,1,0,0,0,.83.29,1.26,1.26,0,0,0,.78-.42l2.13-2.12,2.94-2.94,1-1.05a1.12,1.12,0,0,0-.26-1.77.94.94,0,0,0-.66-.12,1.54,1.54,0,0,0-.83.45q-2.1,2.12-4.22,4.22l-.74.75c-.2.2-.35.19-.55,0l-.1-.09c-.55-.56-1.1-1.12-1.66-1.67A.92.92,0,0,0,19.53,23Z"/><path class="cls-1" d="M14,.07h9.37A.54.54,0,0,1,24,.69V14.91c0,.19,0,.19-.2.2s-.39,0-.59,0-.26,0-.26-.23V1.42c0-.28-.12-.39-.39-.39H4.24A.65.65,0,0,1,4.1,1S4,1,4,.94A3.09,3.09,0,0,1,4,.51.51.51,0,0,1,4.56.07Z"/><path class="cls-1" d="M20.91,15.65V3.44c0-.35-.08-.43-.43-.43H2.19C2,3,2,3,2,2.77v-.4c0-.23.1-.32.32-.32H21.46c.31,0,.41.1.41.4V15.17c0,.15,0,.21-.18.24S21.19,15.56,20.91,15.65Z"/></svg>