<svg id="Capa_1" data-name="Capa 1" xmlns="http://www.w3.org/2000/svg" viewBox="0 0 32 32"><defs><style>.cls-1{fill:#1f80c1;}</style></defs><path class="cls-1" d="M.53,15.45l.72-1.08,2.42-3.58L8.11,4.21a.17.17,0,0,1,.24-.09l22.83,7.62.15,0-.37.57L23.85,23a.2.2,0,0,1-.28.09L17,20.94,9.67,18.49,2.33,16.05.69,15.51Zm27.1-3.73a.24.24,0,0,0-.08-.06l-.28-.1L19.7,9.06,10.42,6c-.33-.11-.27-.13-.38.19A1.3,1.3,0,0,1,9,7.1,1.34,1.34,0,0,1,7.9,6.81c-.12-.1-.19-.08-.25.05l0,.06L3.26,13.34c-.12.18-.12.19.07.3a1.37,1.37,0,0,1,.55,1.76c0,.11,0,.17.1.21L5.06,16l7.28,2.39,8.79,2.9c.35.12.28.14.39-.2a1.33,1.33,0,0,1,2.1-.64c.18.12.18.11.3-.06l4.29-6.44c.13-.19.13-.2-.07-.32a1.34,1.34,0,0,1-.57-1.68Z"/><path class="cls-1" d="M.07,20l.24-.36c.18-.27.37-.54.55-.82.06-.1.12-.11.23-.07L5.27,20.1l7.34,2.44L19.92,25l4,1.33c.23.08.23.08.36-.11q3.4-5.13,6.82-10.24c.08-.13.15-.18.31-.11A5.24,5.24,0,0,0,32,16c0,.06-.06.11-.09.15l-7.73,11.6c-.08.12-.15.16-.29.11L13.12,24.3,5.79,21.87.24,20Z"/><path class="cls-1" d="M.26,17.69l.66-1c.21-.32.21-.32.59-.2l13.06,4.34,7.32,2.43,2,.66c.22.07.23.07.35-.12L29,16.68c.63-.95,1.28-1.89,1.92-2.84a.17.17,0,0,1,.25-.08c.14.06.29.09.45.15l-.09.15L24,25.41a.19.19,0,0,1-.26.08l-8.63-2.87-7.4-2.45L.32,17.72Z"/><path class="cls-1" d="M26.79,12.13a2,2,0,0,0,.33,1.43.85.85,0,0,0,.14.19c.13.1.11.18,0,.3q-1.8,2.68-3.59,5.38a.2.2,0,0,1-.28.1,2,2,0,0,0-2.33.82.17.17,0,0,1-.24.08l-7.56-2.49L5.93,15.51l-1.12-.36c-.11,0-.13-.09-.12-.19a1.87,1.87,0,0,0-.47-1.45.23.23,0,0,1,0-.33Q6,10.48,7.87,7.76a.16.16,0,0,1,.21-.07,2,2,0,0,0,2.39-.81.17.17,0,0,1,.24-.06l6.74,2.23L26,11.87ZM15.6,10.8a6.87,6.87,0,0,0-.85.16,2.58,2.58,0,0,0-1.64,3.72,3.36,3.36,0,0,0,4.31,1.45,2.54,2.54,0,0,0,1.21-3.55A3.37,3.37,0,0,0,15.6,10.8Z"/><path class="cls-1" d="M15.61,11.75c-.13,0-.32,0-.5.07a1.67,1.67,0,0,0-1,2.69,2.44,2.44,0,0,0,2.76.84,1.65,1.65,0,0,0,.77-2.63A2.45,2.45,0,0,0,15.61,11.75Z"/><path class="cls-1" d="M15.61,11.75a2.45,2.45,0,0,1,2,1,1.65,1.65,0,0,1-.77,2.63,2.44,2.44,0,0,1-2.76-.84,1.67,1.67,0,0,1,1-2.69C15.29,11.78,15.48,11.77,15.61,11.75Z"/></svg>