<svg id="Capa_1" data-name="Capa 1" xmlns="http://www.w3.org/2000/svg" viewBox="0 0 32 32"><defs><style>.cls-1{fill:#1f80c1;}</style></defs><path class="cls-1" d="M27.9,12a12.06,12.06,0,0,1-2.56,7.5c-1.25,1.62-2.46,3.28-3.69,4.91l-5.4,7.22c-.17.21-.29.21-.45,0q-4.53-6-9.06-12.08A12.62,12.62,0,0,1,4.79,16a9.88,9.88,0,0,1-.55-2.45,14.63,14.63,0,0,1-.08-1.87,11.66,11.66,0,0,1,1.31-5A11.92,11.92,0,0,1,11,1.37a11.09,11.09,0,0,1,3.48-1A13.63,13.63,0,0,1,16,.23a11.37,11.37,0,0,1,4.81,1,11.77,11.77,0,0,1,6.58,7.4,10.9,10.9,0,0,1,.45,2.26C27.86,11.29,27.88,11.7,27.9,12ZM16,16.07a4,4,0,1,0-4-4A4,4,0,0,0,16,16.07Z"/></svg>