<svg id="Capa_1" data-name="Capa 1" xmlns="http://www.w3.org/2000/svg" viewBox="0 0 32 32"><defs><style>.cls-1{fill:#1f80c1;}</style></defs><path class="cls-1" d="M4,16l1.09.36L12,18.6a.23.23,0,0,0,.3-.07c1.19-1.2,2.39-2.39,3.59-3.59l.13-.13.14.13c1.19,1.19,2.39,2.38,3.58,3.58a.28.28,0,0,0,.32.08L27.74,16l.18-.05c0,.07,0,.13,0,.19V24.1a.25.25,0,0,1-.17.27l-9.55,4.52c-.67.32-1.35.63-2,1a.38.38,0,0,1-.4,0l-3.23-1.53L5.55,25l-1.33-.64a.22.22,0,0,1-.16-.24q0-2.72,0-5.43c0-.85,0-1.7,0-2.54Z"/><path class="cls-1" d="M.08,14.12a2.51,2.51,0,0,0,.23-.21L3.93,10.3a.24.24,0,0,1,.29-.07L15.81,14.1l.14.05-.09.11L12.13,18a.22.22,0,0,1-.27.07L.23,14.18Z"/><path class="cls-1" d="M16.06,6.05l1.08-1.11L19.88,2.2a.21.21,0,0,1,.25-.06L31.74,6l.13.06-.09.11Q29.92,8,28.07,9.89a.25.25,0,0,1-.29.07L16.17,6.1Z"/><path class="cls-1" d="M.1,6.07l1.56-.53L11.82,2.15a.28.28,0,0,1,.32.08Q14,4.08,15.82,5.91l.13.14-.16.06L4.22,10a.25.25,0,0,1-.31-.07L.21,6.18A.57.57,0,0,1,.1,6.07Z"/><path class="cls-1" d="M31.86,14.14l-.13,0L21.52,17.58l-1.4.47a.2.2,0,0,1-.24-.05l-3.75-3.75-.08-.1.31-.11,11.38-3.8a.28.28,0,0,1,.34.08L31,13.2C31.26,13.5,31.56,13.82,31.86,14.14Z"/></svg>