<svg id="Capa_1" data-name="Capa 1" xmlns="http://www.w3.org/2000/svg" viewBox="0 0 32 32"><defs><style>.cls-1{fill:#1f80c1;}</style></defs><path class="cls-1" d="M16,29H1a.89.89,0,0,1-.91-.91q0-3.06,0-6.13A.83.83,0,0,1,1,21.05H31a.86.86,0,0,1,.89.88q0,3,0,6.09A.9.9,0,0,1,31,29C26,29,21,29,16,29Zm0-3.33a.62.62,0,0,0,.63-.63.63.63,0,0,0-.64-.63.64.64,0,0,0-.63.64A.62.62,0,0,0,16,25.63Z"/><path class="cls-1" d="M4.09,19.07c.07-.33.13-.64.19-.95.33-1.65.67-3.3,1-4.94l.78-3.89c0-.14.1-.17.23-.17H20.75c.28,0,.24,0,.24-.25,0-.58,0-1.17,0-1.75,0-.16-.05-.19-.2-.19-1.46,0-2.93,0-4.39,0-.31,0-.39-.08-.39-.38V3.37c0-.29.07-.36.36-.36h11.2c.28,0,.36.07.36.35,0,1.07,0,2.14,0,3.22,0,.26-.09.35-.36.35H23.17c-.2,0-.2,0-.2.2v1.8c0,.14,0,.19.18.19h2.58c.14,0,.19,0,.21.18l1.44,7.09c.17.84.34,1.69.52,2.53,0,.12,0,.16-.12.15H4.09ZM22,5.91h4.09c.29,0,.29,0,.29-.29,0-.53,0-1,0-1.57,0-.15-.05-.2-.19-.2H17.8c-.14,0-.2,0-.2.19,0,.54,0,1.07,0,1.6,0,.26,0,.27.27.27Zm-11.9,5.73H7.21a.71.71,0,0,0-.72.72v1.05a.63.63,0,0,0,0,.19.75.75,0,0,0,.78.52h4.48c.38,0,.76,0,1.14,0a.73.73,0,0,0,.76-.77c0-.32,0-.63,0-.95a.76.76,0,0,0-.77-.77C12,11.65,11,11.64,10.08,11.64Zm13.85.79a.65.65,0,0,0,.64.67.67.67,0,0,0,.67-.66.64.64,0,0,0-.66-.65A.62.62,0,0,0,23.93,12.43Zm-7.29-.64a.64.64,0,0,0-.65.65.65.65,0,0,0,.66.66.67.67,0,0,0,.66-.66A.66.66,0,0,0,16.64,11.79Zm7.29,3.45a.66.66,0,0,0,.65.68.68.68,0,0,0,.66-.66.64.64,0,0,0-.65-.65A.61.61,0,0,0,23.93,15.24Zm-7.94,0a.66.66,0,0,0,.65.67.68.68,0,0,0,.67-.65.67.67,0,0,0-.65-.67A.65.65,0,0,0,16,15.25Zm4.64-3.46a.63.63,0,0,0-.66.64.64.64,0,0,0,.65.67.68.68,0,0,0,.67-.66A.66.66,0,0,0,20.63,11.79ZM20,15.25a.66.66,0,0,0,.66.67.68.68,0,0,0,.66-.66.65.65,0,0,0-.66-.65A.62.62,0,0,0,20,15.25Z"/><path class="cls-1" d="M22,5.91h-4.1c-.27,0-.27,0-.27-.27,0-.53,0-1.06,0-1.6,0-.14.06-.19.2-.19h8.37c.14,0,.19,0,.19.2,0,.52,0,1,0,1.57,0,.29,0,.29-.29.29H22Z"/></svg>