<?xml version="1.0" encoding="UTF-8"?>
<svg id="Capa_1" data-name="Capa 1" xmlns="http://www.w3.org/2000/svg" version="1.1" viewBox="0 0 32 32">
  <defs>
    <style>
      .cls-1 {
        fill: #1a81bf;
        stroke-width: 0px;
      }
    </style>
  </defs>
  <path class="cls-1" d="M8.38,12H3.99v4.39h1.49c.14-1.82,1.29-3.36,2.9-4.02v-.37Z"/>
  <rect class="cls-1" x="3.99" y="18.6" width="1.45" height="4.39"/>
  <path class="cls-1" d="M2,9.01h25.98v3h2v-5.02h0v-2c0-1.1-.89-2-2-2v.89c0,1.45-.98,2.78-2.4,3.06-1.92.37-3.6-1.09-3.6-2.94v-1.01H8v.89c0,1.45-.98,2.78-2.4,3.06-1.92.37-3.6-1.09-3.6-2.94v-1.01h0C.89,3,0,3.89,0,4.99v2H0v19.99H0C0,28.1.9,29,2.01,29h3.43v-2.01H2V9.01Z"/>
  <path class="cls-1" d="M5,5.01c.55,0,1-.45,1-1V1C6,.45,5.55,0,5,0s-1,.45-1,1v3.01c0,.55.45,1,1,1Z"/>
  <path class="cls-1" d="M24.98,5.01c.55,0,1-.45,1-1V1C25.98.45,25.54,0,24.98,0s-1,.45-1,1v3.01c0,.55.45,1,1,1Z"/>
  <path class="cls-1" d="M16.71,23.43h-3.45c-.86,0-1.56.7-1.56,1.56s.7,1.56,1.56,1.56h3.45c.86,0,1.56-.7,1.56-1.56s-.7-1.56-1.56-1.56Z"/>
  <path class="cls-1" d="M31.96,16.54c0-.08-.01-.16-.02-.24-.02-.14-.06-.28-.11-.41,0,0,0,0,0,0-.2-.62-.62-1.13-1.16-1.47-.41-.26-.9-.41-1.42-.41H10.22c-.54,0-1.05.16-1.47.44-.13.08-.25.17-.37.28-.48.43-.8,1.01-.9,1.67-.02.13-.04.26-.04.4v12.39c0,.99.52,1.86,1.31,2.35.43.27.93.43,1.47.43h18.97c.54,0,1.05-.16,1.48-.43.79-.49,1.31-1.36,1.31-2.36v-12.43c0-.07-.02-.14-.02-.21ZM10.48,29.74c-.6,0-1.08-.49-1.08-1.08v-7.4l20.61-.03v7.43c0,.6-.49,1.08-1.08,1.08H10.48ZM28.93,16.23c.6,0,1.08.49,1.08,1.08v1.39H9.4v-1.39c0-.6.49-1.08,1.08-1.08h18.44Z"/>
</svg>