<svg id="Capa_1" data-name="Capa 1" xmlns="http://www.w3.org/2000/svg" viewBox="0 0 32 32"><defs><style>.cls-1{fill:#1f80c1;}</style></defs><path class="cls-1" d="M0,27.81l.13-.09,3-3,6.33-6.31c.8-.8,1.59-1.59,2.4-2.37a.23.23,0,0,0,0-.32,10.64,10.64,0,0,1-1.09-3.44,8.8,8.8,0,0,1-.09-1.92,10.49,10.49,0,0,1,5.71-8.93A9.44,9.44,0,0,1,19.93.34,11.61,11.61,0,0,1,21.6.24,10.64,10.64,0,0,1,31.74,8.79a9.69,9.69,0,0,1,.18,2.74,10.6,10.6,0,0,1-8.64,9.75,10.68,10.68,0,0,1-6-.61c-.28-.11-.55-.25-.82-.38a.16.16,0,0,0-.23,0l-4.18,4.19c-.41.41-.81.82-1.23,1.23a.32.32,0,0,1-.2.07L9,25.74c-.14,0-.32,0-.41,0s0,.25,0,.38c0,.57,0,1.13.06,1.69V28l-.28,0-1.77-.07c-.09,0-.1,0-.1.12,0,.68,0,1.37,0,2.06a.39.39,0,0,1-.1.19L4.55,32.05a.76.76,0,0,0-.11.14h-2a.53.53,0,0,0-.17,0L1,32.12c-.33,0-.67,0-1,0ZM25.62,8.74a2.15,2.15,0,1,0-2.14-2.15A2.13,2.13,0,0,0,25.62,8.74Z"/></svg>