<svg id="Capa_1" data-name="Capa 1" xmlns="http://www.w3.org/2000/svg" viewBox="0 0 32 32"><defs><style>.cls-1{fill:#1f80c1;}</style></defs><path class="cls-1" d="M32.15,32H.27C0,32,0,32,0,31.81c0-.52,0-1,0-1.55,0-.13,0-.19.17-.18a.41.41,0,0,0,.11,0H32.15Z"/><path class="cls-1" d="M26,14V.22C26,0,26,0,26.2,0h3.55c.14,0,.19,0,.19.19V27.83c0,.14-.05.18-.19.18H26.17C26,28,26,28,26,27.8Z"/><path class="cls-1" d="M17.92,16V4.21c0-.22,0-.22.22-.22h3.54c.22,0,.22,0,.22.22V27.79c0,.22,0,.22-.21.22H18.14c-.22,0-.22,0-.22-.22Z"/><path class="cls-1" d="M13.86,18v9.74c0,.24,0,.24-.24.24H10.11c-.2,0-.2,0-.2-.2V8.23c0-.21,0-.21.21-.21h3.55c.19,0,.19,0,.19.2Z"/><path class="cls-1" d="M1.79,20V12.24c0-.22,0-.22.21-.22H5.63c.15,0,.2,0,.2.19q0,7.8,0,15.61c0,.15,0,.19-.2.19H2c-.21,0-.21,0-.21-.21Z"/></svg>