<?xml version="1.0" encoding="UTF-8"?><svg id="Capa_1" xmlns="http://www.w3.org/2000/svg" viewBox="0 0 24 24"><defs><style>.cls-1{fill:#1680c1;}</style></defs><path class="cls-1" d="M23.79,3.95s-.02-.02-.04-.03L12.15,.12c-.09-.03-.18-.03-.27,0L.22,3.92s-.07,.04-.1,.07l11.72,3.93,11.95-3.98Z"/><path class="cls-1" d="M12.19,8.34v15.56s.02,0,.03,0c.88-.43,1.78-.84,2.66-1.27,2.97-1.4,5.93-2.81,8.9-4.21,.02-.01,.03-.02,.04-.04,.02-.01,.04-.03,.06-.04,.03-.03,.05-.07,.05-.12,0-.02,.03-.04,.03-.06,0-2.32-.03-11.57-.04-13.71l-11.73,3.9Z"/><path class="cls-1" d="M.05,4.5c0,1.85,.03,8.27,.04,11.61h0c0,.69,0,1.37,0,2.06,0,.12,.04,.19,.15,.24,.45,.21,.89,.42,1.34,.63,2.33,1.1,4.67,2.21,7,3.31,1.04,.49,2.08,.99,3.12,1.48V8.4L.05,4.5Z"/></svg>