<svg id="Capa_1" data-name="Capa 1" xmlns="http://www.w3.org/2000/svg" viewBox="0 0 32 32"><defs><style>.cls-1{fill:#1f80c1;}</style></defs><path class="cls-1" d="M0,4.07l.34-.31L1.78,2.35l.09-.08L2.74,3,3.88,4c.1.09.16.06.23,0L5.87,2.26,6,2.11l.15.15L7.83,4c.1.1.16.11.26,0,.56-.57,1.13-1.13,1.7-1.69a1.28,1.28,0,0,0,.1-.17l.38.37L11.81,4c.09.09.15.08.23,0l1.71-1.76c.1-.1.15-.11.26,0L15.73,4c.14.14.21.13.34,0l1.71-1.77.07-.06.11.08c.58.58,1.18,1.15,1.76,1.74.11.11.17.1.28,0l1.87-1.66L22,2.24l.1.09c.55.55,1.09,1.1,1.64,1.64a.36.36,0,0,1,.12.28c0,1.9,0,3.8,0,5.7,0,.09,0,.18-.14.19a8.58,8.58,0,0,0-4.77,1.55A1.57,1.57,0,0,1,18,12H2.71c-.11,0-.15,0-.15.16V14c0,.13,0,.17.17.16H16.46a.85.85,0,0,0-.09.15c-.26.5-.53,1-.78,1.51a.24.24,0,0,1-.26.17H2.7c-.11,0-.14,0-.14.14v1.84c0,.11,0,.15.15.15H14.78c.21,0,.2,0,.19.21,0,.5,0,1,0,1.49,0,.09,0,.14-.11.13H2.79c-.23,0-.23,0-.23.23v1.67c0,.23,0,.23.22.23H15.21a.23.23,0,0,1,.26.18A9,9,0,0,0,22.09,28c.4.09.81.11,1.22.16l.15,0L22,29.71l-2.14-1.84-2,2-.13-.11L16,28c-.15-.15-.15-.15-.3,0-.56.56-1.12,1.11-1.67,1.67a.83.83,0,0,0-.12.17l-.65-.64c-.42-.41-.84-.81-1.25-1.23-.1-.1-.16-.09-.25,0l-1.71,1.77c-.1.11-.16.09-.25,0L8.05,27.94a.74.74,0,0,1-.1-.16l-2,2-.11-.1L4.11,28c-.11-.11-.18-.11-.29,0L1.94,29.67l-.07.06-.12-.11L.14,28,0,27.9Zm12,6.06h9.28c.14,0,.18-.05.18-.18,0-.6,0-1.19,0-1.78,0-.13-.05-.18-.18-.17H2.78c-.22,0-.22,0-.22.21v1.7c0,.21,0,.21.21.21Z"/><path class="cls-1" d="M24,11.18A8,8,0,1,1,16,19,8,8,0,0,1,24,11.18Zm6.53,8a6.56,6.56,0,1,0-6.6,6.55A6.58,6.58,0,0,0,30.52,19.14Z"/><path class="cls-1" d="M24.67,16.81c0,.58,0,1.16,0,1.75a.67.67,0,0,0,.21.5c.54.54,1.09,1.08,1.61,1.63a.69.69,0,0,1-.32,1.19.62.62,0,0,1-.64-.19l-1.62-1.6-.43-.44a.68.68,0,0,1-.22-.5c0-1.47,0-2.94,0-4.42a.66.66,0,0,1,.68-.65.65.65,0,0,1,.69.64c0,.69,0,1.39,0,2.09Z"/></svg>