<svg id="Capa_1" data-name="Capa 1" xmlns="http://www.w3.org/2000/svg" viewBox="0 0 32 32"><defs><style>.cls-1{fill:#1f80c1;}</style></defs><path class="cls-1" d="M1.77,14.58l-.09-.08L.14,13a.16.16,0,0,1,0-.25A19.44,19.44,0,0,1,7.81,6.28a18.39,18.39,0,0,1,5.12-1.56c.66-.1,1.34-.16,2-.2a17.21,17.21,0,0,1,1.9,0,18.82,18.82,0,0,1,3.8.54,19.44,19.44,0,0,1,11.22,7.68c.08.1.09.16,0,.26-.5.48-1,1-1.47,1.46l-.09.08C26.77,9.63,22.07,6.92,16,6.93S5.27,9.68,1.77,14.58Z"/><path class="cls-1" d="M5.38,18.19c-.44-.45-.9-.9-1.35-1.35-.14-.14-.27-.28-.42-.41s-.07-.12,0-.21a14.76,14.76,0,0,1,1.82-2.35,14.47,14.47,0,0,1,4.2-3.08,14.43,14.43,0,0,1,7.1-1.44,14.34,14.34,0,0,1,6.17,1.72,14.5,14.5,0,0,1,3.54,2.68,14,14,0,0,1,2,2.51s0,.13,0,.16l-1.8,1.82a12.11,12.11,0,0,0-21.2,0Z"/><path class="cls-1" d="M23,21.77a7.31,7.31,0,0,0-14,.06L9,21.75l-1.71-1.7a.18.18,0,0,1,0-.25,9.71,9.71,0,0,1,7.14-5.47,8.32,8.32,0,0,1,2.28-.12,9.61,9.61,0,0,1,8.15,5.55.23.23,0,0,1-.06.32l-1.58,1.58Z"/><path class="cls-1" d="M16,27.52A3.53,3.53,0,1,1,19.51,24,3.52,3.52,0,0,1,16,27.52Z"/></svg>