<?xml version="1.0" encoding="UTF-8"?>
<svg id="Layer_1" data-name="Layer 1" xmlns="http://www.w3.org/2000/svg" version="1.1" viewBox="0 0 399.48 257.7">
  <defs>
    <style>
      .cls-1 {
        fill: #1b81be;
        stroke-width: 0px;
      }
    </style>
  </defs>
  <path class="cls-1" d="M221.55,118.31c-.67-.27-2.38-.9-5.13-1.91-2.75-1.01-4.79-1.77-6.13-2.32-1.35-.53-3.22-1.44-5.63-2.71-2.42-1.28-4.23-2.51-5.44-3.72-1.21-1.21-2.32-2.68-3.32-4.43-1.01-1.74-1.51-3.62-1.51-5.63,0-3.22,1.01-5.9,3.02-8.04,2.01-2.15,4.63-3.23,7.85-3.23,6.83,0,10.52,4.23,11.06,12.67h31.18v-1c.14-9.26-2.28-17.27-7.24-24.04-4.96-6.77-11.87-11.17-20.72-13.18v-20.32h-27.16v20.32c-10.06,2.82-17.93,7.71-23.63,14.68-5.7,6.98-8.55,15.62-8.55,25.95,0,7.25,1.42,13.48,4.23,18.71,2.82,5.23,6.31,9.15,10.47,11.76,4.15,2.62,8.67,5.03,13.57,7.25,4.89,2.21,9.43,4.09,13.58,5.63,4.15,1.54,7.64,3.69,10.46,6.44,2.82,2.75,4.23,6,4.23,9.75,0,3.23-1.11,6.01-3.32,8.36-2.22,2.35-4.93,3.51-8.15,3.51-3.76,0-6.61-1.38-8.55-4.12-1.94-2.75-3.05-6.14-3.32-10.16h-34.41c0,10.33,2.95,19.11,8.85,26.35,5.5,6.84,13.68,11.41,24.54,13.68v20.32h27.16v-21.12c9.39-3.09,17-8.25,22.83-15.49,5.84-7.24,8.75-15.69,8.75-25.35,0-9.12-2.68-16.96-8.05-23.53-5.36-6.57-12.53-11.6-21.52-15.09Z"/>
  <path class="cls-1" d="M399.48,194.38l-61.96-59.91v28.6h-20.68c3.32-10.99,5.12-22.65,5.12-34.72,0-66.18-53.65-119.83-119.83-119.83-25.22,0-48.62,7.8-67.92,21.11H61.96V0L0,63.32l61.96,59.91v-28.6h25.16c-3.13,10.69-4.81,22-4.81,33.7,0,66.18,53.65,119.83,119.83,119.83,24.57,0,47.41-7.4,66.42-20.09h0s68.97,0,68.97,0v29.62l61.96-63.32ZM200.5,228.09c-55.18,0-99.91-44.73-99.91-99.91S145.32,28.26,200.5,28.26s99.92,44.73,99.92,99.91-44.73,99.91-99.92,99.91Z"/>
</svg>