<svg id="Capa_1" data-name="Capa 1" xmlns="http://www.w3.org/2000/svg" viewBox="0 0 32 32"><defs><style>.cls-1{fill:#1f80c1;}</style></defs><path class="cls-1" d="M6.87,13.7l-1.49.79L2.59,16c-.13.07-.18.06-.25-.08L.16,11.8l-.09-.18.65.2,1.38.42c.14,0,.18,0,.22-.12A14,14,0,0,1,7,5a13.78,13.78,0,0,1,6.45-3,13.58,13.58,0,0,1,2-.22,15.67,15.67,0,0,1,1.94,0,13.87,13.87,0,0,1,4.43,1.15A14.26,14.26,0,0,1,30,13.21c0,.12,0,.25.07.37a.38.38,0,0,1-.37.47H28.37a.37.37,0,0,1-.37-.32c-.14-.52-.24-1.06-.43-1.56a12.13,12.13,0,0,0-8.7-8,11.4,11.4,0,0,0-2.26-.32,11.72,11.72,0,0,0-6.28,1.37,12.14,12.14,0,0,0-6.11,7.46c0,.15,0,.19.14.22l2.35.72Z"/><path class="cls-1" d="M25.18,18.49l4.43-2.36L32,20.53l0,0-.57-.17L29.92,20c-.14-.05-.19,0-.23.12a14,14,0,0,1-2.34,4.59,14.12,14.12,0,0,1-7.58,5.1,12.59,12.59,0,0,1-2.51.45,17.36,17.36,0,0,1-2,0A14.23,14.23,0,0,1,5.06,25.1a14.24,14.24,0,0,1-3-6.22.42.42,0,0,1,.41-.51c.37,0,.75,0,1.13,0a.41.41,0,0,1,.42.38,12,12,0,0,0,2.71,5.39A12.18,12.18,0,0,0,13.12,28a12.63,12.63,0,0,0,2,.3A12.24,12.24,0,0,0,27.75,19.5c.06-.19.06-.2-.14-.26l-2.27-.69Z"/></svg>