<?xml version="1.0" encoding="UTF-8"?>
<svg id="Layer_1" data-name="Layer 1" xmlns="http://www.w3.org/2000/svg" version="1.1" viewBox="0 0 400.72 401.38">
  <defs>
    <style>
      .cls-1 {
        fill: #1b81be;
        stroke-width: 0px;
      }
    </style>
  </defs>
  <path class="cls-1" d="M283.28,81.12c-10.9,0-21.44,1.49-31.45,4.26V25.46L226.39.02l-25.41,25.41L176.38.83l-24.8,24.81L125.94,0l-25.02,25.02L75.99.09l-25.4,25.41L25.77.68,1.13,25.32,0,375.25l26.08,26.08,24.76-24.77,24.82,24.82,25.53-25.54,25.19,25.19,25.28-25.27,24.72,24.72,24.68-24.67,25.28,25.27,25.49-25.49v-63.84c10.01,2.77,20.55,4.26,31.45,4.26,64.86,0,117.44-52.58,117.44-117.44s-52.58-117.45-117.44-117.45ZM80.5,164.92c-2.84-2.77-6.37-4.94-10.56-6.5-4.2-1.56-8.78-3.46-13.72-5.69-4.95-2.24-9.52-4.67-13.71-7.32-4.2-2.64-7.72-6.6-10.57-11.88-2.84-5.28-4.27-11.58-4.27-18.9,0-10.43,2.88-19.16,8.64-26.21,5.76-7.04,13.71-11.98,23.87-14.83v-20.52h27.43v20.52c8.94,2.03,15.92,6.47,20.93,13.31,5.01,6.84,7.45,14.93,7.31,24.28v1.01h-31.49c-.54-8.53-4.27-12.8-11.17-12.8-3.25,0-5.9,1.09-7.93,3.26-2.03,2.16-3.05,4.87-3.05,8.12,0,2.03.51,3.93,1.53,5.69,1.01,1.76,2.13,3.25,3.35,4.47,1.22,1.22,3.05,2.47,5.49,3.76,2.44,1.29,4.33,2.2,5.69,2.74,1.35.55,3.41,1.32,6.19,2.34,2.78,1.02,4.5,1.66,5.18,1.93,9.08,3.52,16.33,8.6,21.74,15.24,5.42,6.64,8.13,14.56,8.13,23.77,0,9.75-2.94,18.29-8.84,25.6-5.89,7.32-13.58,12.53-23.06,15.65v21.33h-27.43v-20.52c-10.97-2.3-19.23-6.91-24.79-13.82-5.96-7.31-8.94-16.18-8.94-26.61h34.75c.27,4.06,1.39,7.48,3.35,10.26,1.96,2.77,4.84,4.16,8.64,4.16,3.25,0,5.99-1.18,8.23-3.55,2.23-2.37,3.35-5.18,3.35-8.44,0-3.79-1.42-7.07-4.27-9.85ZM226.47,340.52H26.45v-24.51h200.02v24.51ZM226.47,275.67H26.45v-24.51h200.02v24.51ZM226.47,210.82h-87.58v-24.51h87.58v24.51ZM226.47,144.95h-87.58v-24.51h87.58v24.51ZM226.47,79.08h-87.58v-24.51h87.58v24.51ZM283.28,293.21c-11.04,0-21.62-1.92-31.45-5.43V111.74c9.83-3.51,20.41-5.43,31.45-5.43,51.61,0,93.44,41.84,93.44,93.45s-41.83,93.45-93.44,93.45Z"/>
  <path class="cls-1" d="M289.79,187.96v-73.65h-13.02v73.65c-4.26,2.31-7.15,6.82-7.15,12.01,0,7.54,6.12,13.66,13.66,13.66,5.29,0,9.86-3.01,12.13-7.4h50.55v-12.26h-50.42c-1.25-2.55-3.26-4.66-5.75-6.01Z"/>
</svg>