<svg id="Capa_1" data-name="Capa 1" xmlns="http://www.w3.org/2000/svg" viewBox="0 0 32 32"><defs><style>.cls-1{fill:#1f80c1;}</style></defs><path class="cls-1" d="M16,14H31.7c.23,0,.23,0,.23.22,0,3,0,6.06,0,9.08a4.43,4.43,0,0,1-4,4.36c-.26,0-.51,0-.77,0H25.44l-17.6,0H3.77a4.46,4.46,0,0,1-1.8-.4A3,3,0,0,1,.26,25a7.58,7.58,0,0,1-.13-1.26c0-2,0-4,0-6V14.24c0-.2,0-.2.21-.2ZM6.13,24.76H7.74a.91.91,0,0,0,.93-.91V20.6A.91.91,0,0,0,8,19.72a1.81,1.81,0,0,0-.4,0H4.82l-.43,0a.9.9,0,0,0-.81.86c0,1.11,0,2.23,0,3.34a.89.89,0,0,0,.9.86Z"/><path class="cls-1" d="M16,10H.33C.1,10,.1,10,.1,9.79c0-.67,0-1.34,0-2A3.6,3.6,0,0,1,1.24,5.2a3.29,3.29,0,0,1,1.82-.81A9.72,9.72,0,0,1,4.37,4.3h22.9c.34,0,.69,0,1,0a3.58,3.58,0,0,1,3.59,3.14,10.76,10.76,0,0,1,0,1.14V9.82c0,.2,0,.2-.2.2H16Z"/></svg>