<?xml version="1.0" encoding="UTF-8"?>
<svg id="Capa_1" data-name="Capa 1" xmlns="http://www.w3.org/2000/svg" version="1.1" viewBox="0 0 32 32">
  <defs>
    <style>
      .cls-1 {
        fill: #1a81bf;
        stroke-width: 0px;
      }
    </style>
  </defs>
  <g>
    <path class="cls-1" d="M5,5.01c.55,0,1-.45,1-1V1c0-.55-.45-1-1-1s-1,.45-1,1v3.01c0,.55.45,1,1,1Z"/>
    <path class="cls-1" d="M24.98,5.01c.55,0,1-.45,1-1V1c0-.55-.45-1-1-1s-1,.45-1,1v3.01c0,.55.45,1,1,1Z"/>
    <rect class="cls-1" x="3.99" y="12" width="4.39" height="4.39"/>
    <rect class="cls-1" x="3.99" y="18.6" width="4.39" height="4.39"/>
  </g>
  <g>
    <path class="cls-1" d="M2,26.98V9.01h12.27v-1.05c0-1.83,1.48-3.31,3.31-3.31h4.48c-.04-.21-.07-.42-.07-.64v-1.01H8v.89c0,1.45-.98,2.78-2.4,3.06-1.92.37-3.6-1.09-3.6-2.94v-1.01h0C.89,3,0,3.89,0,4.99v2H0v19.99h0C0,28.1.9,29,2.01,29h12.25v-2.01H2Z"/>
    <path class="cls-1" d="M27.98,3v.89c0,.26-.04.51-.1.76h2.06c-.17-.94-.98-1.65-1.96-1.65Z"/>
    <rect class="cls-1" x="10.6" y="12" width="3.67" height="4.39"/>
    <rect class="cls-1" x="10.6" y="18.6" width="3.67" height="4.39"/>
  </g>
  <g>
    <path class="cls-1" d="M30.68,6.64h-13.1c-.73,0-1.32.59-1.32,1.32v22.72c0,.73.59,1.32,1.32,1.32h13.1c.73,0,1.32-.59,1.32-1.32V7.96c0-.73-.59-1.32-1.32-1.32ZM30.05,14.07v15.53c0,.26-.21.46-.46.46h-10.91c-.26,0-.46-.21-.46-.46V9.05c0-.26.21-.46.46-.46h10.91c.26,0,.46.21.46.46v5.01Z"/>
    <path class="cls-1" d="M24.13,16.19c-1.73,0-3.13,1.4-3.13,3.13s1.4,3.13,3.13,3.13,3.13-1.4,3.13-3.13-1.4-3.13-3.13-3.13Z"/>
  </g>
  <g>
    <path class="cls-1" d="M21.01,12.96v2.33c.87-.68,1.95-1.09,3.13-1.09s2.26.42,3.13,1.09v-2.33c-1.18,0-2.13-.95-2.13-2.13h-2c0,1.18-.95,2.13-2.13,2.13Z"/>
    <path class="cls-1" d="M27.26,25.68v-2.33c-.87.67-1.95,1.09-3.13,1.09s-2.26-.42-3.13-1.09v2.33c1.18,0,2.13.95,2.13,2.13h2c0-1.18.95-2.13,2.13-2.13Z"/>
  </g>
</svg>