<svg id="Capa_1" data-name="Capa 1" xmlns="http://www.w3.org/2000/svg" viewBox="0 0 32 32"><defs><style>.cls-1{fill:#1f80c1;}</style></defs><path class="cls-1" d="M.13,16A15.88,15.88,0,1,1,15.84,31.9,15.86,15.86,0,0,1,.13,16ZM7,12a.48.48,0,0,1,0-.12,9,9,0,0,1,1.23-2,9.77,9.77,0,0,1,7.15-3.74,8.69,8.69,0,0,1,2.69.2,9.85,9.85,0,0,1,7.13,6,8.62,8.62,0,0,1,.54,1.88c.05.24.12.3.37.3h1.4c.21,0,.32-.09.29-.3a9.3,9.3,0,0,0-.16-.92A11.95,11.95,0,0,0,15.31,4.11a13.14,13.14,0,0,0-2,.27A11.93,11.93,0,0,0,4.79,11.9a.18.18,0,0,1-.2.13H3.15a.32.32,0,0,0-.34.18c-.08.15,0,.26.11.37L5.65,15.3c.18.19.32.19.51,0L7,14.42l1.87-1.86A.33.33,0,0,0,9,12.2a.29.29,0,0,0-.3-.17H7Zm18.13,8,0,.12A10,10,0,0,1,16.36,26a9.73,9.73,0,0,1-1.94-.12,9.94,9.94,0,0,1-3.35-1.19A9.83,9.83,0,0,1,7,20.27a10.25,10.25,0,0,1-.83-2.71.29.29,0,0,0-.3-.26H4.45a.29.29,0,0,0-.29.35,11.65,11.65,0,0,0,1.42,4.22,11.78,11.78,0,0,0,5,4.8,11.49,11.49,0,0,0,6.12,1.27,15.37,15.37,0,0,0,1.66-.21,11.66,11.66,0,0,0,5.84-3,11.81,11.81,0,0,0,3-4.55.17.17,0,0,1,.19-.13H29c.15,0,.29,0,.35-.19s0-.27-.12-.37l-2.71-2.7c-.2-.2-.33-.2-.53,0l-2.72,2.71a.31.31,0,0,0-.11.37c.06.15.2.18.35.18h1.62Z"/></svg>