<svg id="Capa_1" data-name="Capa 1" xmlns="http://www.w3.org/2000/svg" viewBox="0 0 32 32"><defs><style>.cls-1{fill:#1f80c1;}</style></defs><path class="cls-1" d="M32,20.55a.49.49,0,0,1-.52.23c-.59,0-1.18,0-1.77,0-.16,0-.23,0-.29.2a13.74,13.74,0,0,1-2.25,4,14.48,14.48,0,0,1-4.36,3.65,14.14,14.14,0,0,1-4.33,1.52c-.55.09-1.12.14-1.69.19a11.76,11.76,0,0,1-1.19,0,13.87,13.87,0,0,1-4.28-.76,14.33,14.33,0,0,1-9-9A13.5,13.5,0,0,1,1.73,18a.3.3,0,0,1,.33-.38H3.75a.3.3,0,0,1,.34.3A12,12,0,0,0,13,27.71,10,10,0,0,0,15,28c.32,0,.64.06.95,0a12.05,12.05,0,0,0,10.94-7c0-.08.06-.16.1-.26H24.91c-.15,0-.27,0-.33-.17a.33.33,0,0,1,.1-.38L28,16.91a.3.3,0,0,1,.51,0l3.33,3.32c.06.06.1.14.15.2Z"/><path class="cls-1" d="M5,11.23l.23,0H7.14a.3.3,0,0,1,.33.17.3.3,0,0,1-.11.36L4,15.12a.31.31,0,0,1-.5,0L.18,11.78a.33.33,0,0,1-.09-.37.28.28,0,0,1,.31-.16H2.23a.22.22,0,0,0,.24-.17A14.26,14.26,0,0,1,9.24,3.32a14.31,14.31,0,0,1,7.51-1.65,14.06,14.06,0,0,1,5.58,1.47,14.33,14.33,0,0,1,7.82,10.69.3.3,0,0,1-.32.39H28.12a.32.32,0,0,1-.36-.3A11.32,11.32,0,0,0,27,11.3a11.89,11.89,0,0,0-10.6-7.21,11.6,11.6,0,0,0-5.78,1.25,11.88,11.88,0,0,0-5.28,5.19C5.2,10.75,5.09,11,5,11.23Z"/><path class="cls-1" d="M16.11,23.84h-1c-.27,0-.35-.09-.36-.35s0-.69,0-1,0-.44-.4-.54a5.61,5.61,0,0,1-1.66-.78,6.26,6.26,0,0,1-1.18-1.06c-.2-.23-.2-.32,0-.53.45-.43.89-.86,1.35-1.28.27-.25.35-.25.6,0a3.42,3.42,0,0,0,1.61,1.08,3.75,3.75,0,0,0,2.43-.1.67.67,0,0,0,.48-.66.69.69,0,0,0-.4-.69c-.36-.17-.72-.32-1.09-.46-.81-.31-1.63-.57-2.42-.91A3.43,3.43,0,0,1,12,14a3.4,3.4,0,0,1,2.21-4l.07,0c.47-.17.58-.37.54-.86a7.69,7.69,0,0,1,0-1,.27.27,0,0,1,.29-.24h2c.24,0,.33.16.33.47V9a1.1,1.1,0,0,1,0,.18c0,.29.05.42.34.47a6.69,6.69,0,0,1,2.4,1,1.37,1.37,0,0,1,.2.13.35.35,0,0,1,.1.55l-1,1.53-.11.15A.23.23,0,0,1,19,13l-.47-.29a4.1,4.1,0,0,0-2.13-.57,3.8,3.8,0,0,0-1.37.27.76.76,0,0,0-.52.64.82.82,0,0,0,.36.87,7.58,7.58,0,0,0,.92.41c.93.37,1.87.72,2.79,1.11a3.42,3.42,0,0,1,1.51,1.15,3,3,0,0,1,.54,1.45,3.89,3.89,0,0,1-.18,1.76,3.11,3.11,0,0,1-1.63,1.75,8.54,8.54,0,0,1-1.1.41.39.39,0,0,0-.32.49,8.85,8.85,0,0,1,0,1c0,.26-.1.32-.37.32Z"/></svg>