<?xml version="1.0" encoding="UTF-8"?>
<svg id="Capa_1" data-name="Capa 1" xmlns="http://www.w3.org/2000/svg" version="1.1" viewBox="0 0 32 32">
  <defs>
    <style>
      .cls-1 {
        fill: #1b81be;
        stroke-width: 0px;
      }
    </style>
  </defs>
  <g>
    <path class="cls-1" d="M4.77,13.77c-.86,0-1.56.7-1.56,1.56s.7,1.56,1.56,1.56h3.45c.86,0,1.56-.7,1.56-1.56s-.7-1.56-1.56-1.56h-3.45Z"/>
    <path class="cls-1" d="M21.76,4.31H2.78c-1.53,0-2.78,1.24-2.78,2.78v12.39c0,1.53,1.24,2.78,2.78,2.78h10.16c-.16-.42-.3-.86-.41-1.31H2.78c-.81,0-1.47-.66-1.47-1.47v-8.99h14.56c1.49-1.29,3.34-2.17,5.38-2.46.06,0,.05-.09,0-.09H1.31v-.85c0-.81.66-1.47,1.47-1.47h18.98c.81,0,1.47.66,1.47,1.47v.84c.44.02.88.06,1.31.14v-.98c0-1.53-1.24-2.78-2.78-2.78Z"/>
  </g>
  <path class="cls-1" d="M22.76,9.21c-5.1,0-9.24,4.14-9.24,9.24s4.14,9.24,9.24,9.24,9.24-4.14,9.24-9.24-4.14-9.24-9.24-9.24ZM27.72,21.57l-1.85,1.85-3.11-3.11-3.11,3.11-1.85-1.85,3.11-3.11-3.11-3.11,1.85-1.85,3.11,3.11,3.11-3.11,1.85,1.85-3.11,3.11,3.11,3.11Z"/>
</svg>