<svg id="Capa_1" data-name="Capa 1" xmlns="http://www.w3.org/2000/svg" viewBox="0 0 32 32"><defs><style>.cls-1{fill:#1f80c1;}</style></defs><path class="cls-1" d="M3.34,17.35V3.12A.64.64,0,0,1,4,2.41H7.37c.2,0,.2,0,.2-.2V.92a.63.63,0,0,1,.69-.7H23.79a.62.62,0,0,1,.68.68c0,.45,0,.89,0,1.34,0,.14.05.17.19.17H28a.67.67,0,0,1,.72.69V31.71c0,.09,0,.14-.13.13h-8.1c-.22,0-.22,0-.22-.21V21.57c0-.21,0-.21-.22-.21H12c-.23,0-.23,0-.23.22v10c0,.22,0,.22-.22.22H3.59c-.25,0-.25,0-.25-.24Zm14.8-8.84v-2c0-.13,0-.18-.18-.18H16.34c-.12,0-.17,0-.17.16v4c0,.12,0,.16.16.15H18c.15,0,.19-.05.19-.2ZM7.54,10.65H9.31c.13,0,.18,0,.18-.17,0-1.32,0-2.63,0-3.94,0-.14-.06-.18-.19-.18H7.73c-.15,0-.2,0-.2.19,0,1.3,0,2.61,0,3.91Zm4.21,0a.39.39,0,0,0,0-.09V6.51c0-.13-.06-.14-.16-.14H10c-.12,0-.16,0-.16.17v4c0,.14,0,.17.17.17h1.76Zm2.14,0h1.78c.13,0,.17,0,.17-.17,0-1.32,0-2.63,0-3.94,0-.14-.05-.18-.19-.18H14.08c-.14,0-.2,0-.19.19v4.09Zm6.35-2.13v2c0,.12,0,.16.16.16H22c.14,0,.17-.05.17-.19V6.55c0-.13,0-.18-.18-.18H20.43c-.15,0-.19,0-.19.19C20.25,7.21,20.24,7.87,20.24,8.52Zm2.31,2.12h1.77c.15,0,.17-.06.17-.19V6.56c0-.18,0-.19-.2-.19H22.75c-.2,0-.2,0-.2.2v4.07ZM9.27,17c0-.66,0-1.31,0-2,0-.13,0-.18-.17-.18H7.5c-.14,0-.18,0-.18.16,0,1.32,0,2.63,0,3.94,0,.14,0,.18.19.18H9.09c.15,0,.19-.05.19-.19C9.27,18.35,9.27,17.69,9.27,17Zm2.31,0v-2c0-.13,0-.17-.17-.16H9.8c-.14,0-.17,0-.17.18q0,2,0,3.93c0,.15,0,.18.18.18h1.58c.14,0,.2,0,.19-.19Zm4.05-2.12H13.84c-.13,0-.16,0-.16.18V19c0,.15,0,.19.19.19.52,0,1,0,1.57,0,.15,0,.19-.05.19-.2,0-1.3,0-2.6,0-3.9ZM16,17c0,.67,0,1.33,0,2,0,.12.05.16.17.16h1.61c.14,0,.18-.05.18-.18q0-2,0-3.93c0-.13,0-.18-.17-.17H16.15c-.13,0-.17,0-.17.17C16,15.73,16,16.38,16,17Zm6-2.11H20.21c-.15,0-.18.06-.18.19,0,1.3,0,2.6,0,3.91,0,.18,0,.19.2.19h1.54c.2,0,.2,0,.2-.2V14.92Zm.36,2.1v2c0,.13,0,.18.16.18h1.62c.12,0,.17,0,.17-.16v-4c0-.12,0-.16-.15-.15H22.5c-.13,0-.16,0-.16.17Z"/></svg>