<svg id="Capa_1" data-name="Capa 1" xmlns="http://www.w3.org/2000/svg" viewBox="0 0 32 32"><defs><style>.cls-1{fill:#1680c1;}</style></defs><polygon class="cls-1" points="4.56 16.29 8.19 20.04 15.96 27.96 18.92 25 23.44 20.34 16.37 13.28 14.03 15.62 10.65 12.23 14.59 8.29 12.51 8.29 4.56 16.29"/><polygon class="cls-1" points="0 12.34 3.38 15.64 11.58 7.38 8.35 4.15 0 12.34"/><polygon class="cls-1" points="16.81 8.29 16.59 8.29 12.64 12.23 14.03 13.62 16.37 11.28 24.42 19.33 27.49 16.16 19.57 8.29 16.81 8.29"/><polygon class="cls-1" points="23.61 4.04 20.36 7.29 20.36 7.29 28.68 15.51 32 12.28 23.61 4.04"/></svg>