<?xml version="1.0" encoding="UTF-8"?>
<svg id="Capa_1" data-name="Capa 1" xmlns="http://www.w3.org/2000/svg" version="1.1" viewBox="0 0 32 32">
  <defs>
    <style>
      .cls-1 {
        fill: #1a81bf;
        stroke-width: 0px;
      }
    </style>
  </defs>
  <rect class="cls-1" x="2.1" y="5.3" width="3.2" height="12.8"/>
  <g>
    <path class="cls-1" d="M12.7,16.4c.9.5,1.7,1,2.5,1.5,2,1.2,4,2.4,6,3.6.3.2.4.3.4.6,0,3.1,0,6.3,0,9.4,0,.1,0,.3,0,.5-.2,0-.3-.1-.4-.2-2.7-1.6-5.4-3.3-8.1-4.9-.2-.1-.3-.2-.3-.5,0-3.2,0-6.5,0-9.7,0,0,0-.1,0-.3Z"/>
    <path class="cls-1" d="M32,17.2c0,.4,0,.8,0,1.2,0,2.9,0,5.9,0,8.8,0,.1-.1.3-.2.4-2.7,1.4-5.5,2.8-8.2,4.3,0,0,0,0-.1,0,0-.1,0-.2,0-.3,0-3.2,0-6.4,0-9.7,0-.2,0-.4.3-.5,2.7-1.4,5.3-2.7,8-4.1,0,0,.2,0,.3-.1Z"/>
    <g>
      <path class="cls-1" d="M9.8,20.2H1.6c-.9,0-1.6.7-1.6,1.6s.7,1.6,1.6,1.6h9.1c0-1.1,0-2.1,0-3.2h-.9Z"/>
      <path class="cls-1" d="M10.7,16.3h0c0-.8.4-1.3,1-1.7V3h-3.2v15.1h2.2v-1.4c0,0,0-.2,0-.3Z"/>
      <path class="cls-1" d="M18.1,10.4v-3.3h-3.2v4.9s0,0,0,0l3.1-1.6Z"/>
      <path class="cls-1" d="M23.4,9c.4.2.7.4,1.1.6V0h-3.2v8.8c.3-.1.6-.2.8-.2.4,0,.9.1,1.3.4Z"/>
      <path class="cls-1" d="M30.9,13.4v-6.4h-3.2v4.5c.8.5,1.6,1,2.4,1.4l.8.4Z"/>
    </g>
    <path class="cls-1" d="M13.9,14.8c.7-.4,1.3-.7,2-1.1,2-1,4-2,6-3.1.2,0,.3-.1.6,0,2.8,1.7,5.7,3.3,8.5,5,0,0,0,0,0,0-.2,0-.3.2-.4.3-2.6,1.4-5.2,2.7-7.8,4-.1,0-.4,0-.5,0-2.8-1.7-5.5-3.4-8.2-5.2,0,0,0,0-.1-.1Z"/>
  </g>
</svg>