<svg id="Capa_1" data-name="Capa 1" xmlns="http://www.w3.org/2000/svg" viewBox="0 0 32 32"><defs><style>.cls-1{fill:#1f80c1;}</style></defs><path class="cls-1" d="M.75,0h14a.88.88,0,0,0,0,.17V6.21c0,.21,0,.21.21.21h6.14c.15,0,.19,0,.19.2v8.23a.2.2,0,0,1-.17.23,9.17,9.17,0,0,0-5.4,4.58.3.3,0,0,1-.3.18H2.29c-.14,0-.18,0-.18.18q0,.46,0,.93c0,.11,0,.16.16.15H14.86l.21,0a9.26,9.26,0,0,0,4.19,10.78H.88a.79.79,0,0,1-.82-.61,1.94,1.94,0,0,1,0-.34V.82A.81.81,0,0,1,.61.05Zm9.94,9.28H2.28c-.13,0-.17,0-.17.16,0,.28,0,.56,0,.84s0,.27.27.27H19.07c.13,0,.17,0,.17-.17,0-.29,0-.59,0-.88s0-.21-.22-.21Zm0,5.28H2.28c-.13,0-.17,0-.17.17s0,.54,0,.81,0,.28.28.28H19.08c.12,0,.16,0,.16-.15,0-.3,0-.59,0-.89s0-.21-.22-.21Z"/><path class="cls-1" d="M23.9,31.94a8.07,8.07,0,1,1,8.08-8A8.05,8.05,0,0,1,23.9,31.94Zm-1-9.55v3.84c0,.13,0,.17.16.16h1.67c.15,0,.18,0,.18-.19V18.55c0-.16-.06-.2-.2-.19H23.1c-.2,0-.2,0-.2.21Zm1,7h.86c.12,0,.15,0,.15-.15v-1.7c0-.12,0-.16-.16-.16-.56,0-1.13,0-1.69,0-.11,0-.15,0-.15.15v1.73c0,.1,0,.13.14.13Z"/><path class="cls-1" d="M21.18,5.19h-5c-.2,0-.2,0-.2-.2V.12l5.26,5Z"/></svg>