<svg id="Capa_1" data-name="Capa 1" xmlns="http://www.w3.org/2000/svg" viewBox="0 0 32 32"><defs><style>.cls-1{fill:#1f80c1;}</style></defs><path class="cls-1" d="M22.86-.08l.3.07A1.38,1.38,0,0,1,24.27,1.2a3.89,3.89,0,0,1-.37,2.05,10.3,10.3,0,0,1-2,3,11.24,11.24,0,0,1-3.44,2.57,4.29,4.29,0,0,1-2.11.47c-.4,0-.66-.26-.63-.61a.55.55,0,0,1,.56-.5A2.7,2.7,0,0,0,17.6,8,8.31,8.31,0,0,0,20,6.54a11,11,0,0,0,2.57-3A4.71,4.71,0,0,0,23.16,2a3.11,3.11,0,0,0,0-.61c0-.19-.11-.26-.3-.28a1.89,1.89,0,0,0-.85.08,6.55,6.55,0,0,0-2.08,1A11.46,11.46,0,0,0,17.6,4.39c-.13.16-.13.16,0,.25l2.06,1,.19.1-.51.42A7.47,7.47,0,0,1,17.3,7.42a.36.36,0,0,1-.32,0,1.54,1.54,0,0,0-1.65,0,1.52,1.52,0,0,0-.81,1.49,1.53,1.53,0,0,0,1,1.39A1.57,1.57,0,0,0,17.15,10a.53.53,0,0,1,.23-.13A8,8,0,0,0,19.9,8.75,12.34,12.34,0,0,0,22,7c.09-.1.15-.1.27,0,1,.49,1.9,1,2.86,1.44a.59.59,0,0,1,.37.6V31.51a.55.55,0,0,1-.6.61H7.34a.55.55,0,0,1-.62-.6V9.12c0-.08,0-.16,0-.24a.56.56,0,0,1,.35-.47L9.45,7.23l6.36-3.18a.58.58,0,0,1,.57,0c.11,0,.14,0,.19-.08.44-.49.85-1,1.32-1.47A10.1,10.1,0,0,1,21.16.27,4.65,4.65,0,0,1,22.38,0a.18.18,0,0,0,.09,0Z"/></svg>