<svg id="Capa_1" data-name="Capa 1" xmlns="http://www.w3.org/2000/svg" viewBox="0 0 32 32"><defs><style>.cls-1{fill:#1680c1;}</style></defs><path class="cls-1" d="M8,20.2a2.44,2.44,0,1,0,2.44,2.43,2.35,2.35,0,0,0-.09-.64A2.43,2.43,0,0,0,8,20.2Zm0,3.69H8a1.27,1.27,0,0,1-1.25-1.26A1.26,1.26,0,1,1,8,23.89Z"/><path class="cls-1" d="M31.1,6.89H13.82a.68.68,0,0,0-.61.69v11h-.93V10H5.14a1.38,1.38,0,0,0-1.2.68L1.22,15.19a3.26,3.26,0,0,0-.45,1.64V20H.13a.13.13,0,0,0-.13.14v.74A.13.13,0,0,0,.13,21H.2v.42A.62.62,0,0,0,.82,22L2,22H5a3.05,3.05,0,0,1,6,0H16.9v0h7a3.05,3.05,0,0,1,4.16-2.18,3.22,3.22,0,0,1,1.78,2.08l0,.09h1.3a.8.8,0,0,0,.8-.8V7.79A.9.9,0,0,0,31.1,6.89Zm-23,8.59H2.56a.19.19,0,0,1-.18-.19v-.23a.7.7,0,0,1,.11-.39l1.83-3A1.93,1.93,0,0,1,6,10.76H9.09a.19.19,0,0,1,.19.19v3.18A1.49,1.49,0,0,0,8.08,15.48Zm2.3,2.06H9.2a.4.4,0,0,1,0-.8h1.18a.4.4,0,0,1,0,.8Z"/><path class="cls-1" d="M26.92,20.24a2.44,2.44,0,1,0,2.43,2.43,2.3,2.3,0,0,0-.09-.64A2.43,2.43,0,0,0,26.92,20.24Zm0,3.68h0a1.24,1.24,0,0,1-1.25-1.25,1.25,1.25,0,1,1,1.25,1.25Z"/></svg>