<svg id="Capa_1" data-name="Capa 1" xmlns="http://www.w3.org/2000/svg" viewBox="0 0 32 32"><defs><style>.cls-1{fill:#1f80c1;}</style></defs><path class="cls-1" d="M0,19.67c0-.15.05-.31.07-.46A10.43,10.43,0,0,1,.58,17a20.61,20.61,0,0,1,2.23-4.39A42.28,42.28,0,0,1,7.39,6.78a.33.33,0,0,1,.28-.12h4.74a.33.33,0,0,1,.23.1A43.92,43.92,0,0,1,16.12,11l.09.13-.22.2a3.49,3.49,0,0,0-1.15,2.11A3.14,3.14,0,0,0,15,15a.36.36,0,0,1,0,.25,3.31,3.31,0,0,0,0,2.24.39.39,0,0,1,0,.28,3.18,3.18,0,0,0,0,2.15.53.53,0,0,1,0,.39,3.18,3.18,0,0,0,0,2.15.42.42,0,0,1,0,.31,3.06,3.06,0,0,0,0,2.19.47.47,0,0,1,0,.33,3,3,0,0,0,.1,2.38A4.36,4.36,0,0,0,16.25,29l.09.09-.12.06A7,7,0,0,1,14,29.8c-.63.07-1.27.14-1.9.15-1.31,0-2.62.05-3.93,0a13.76,13.76,0,0,1-3.31-.41A5.62,5.62,0,0,1,2.3,28.18,6.14,6.14,0,0,1,.89,26a12.24,12.24,0,0,1-.67-2.73A19.38,19.38,0,0,1,0,20.84a.83.83,0,0,0,0-.15Z"/><path class="cls-1" d="M24,10.14a14,14,0,0,1,4.58.68,6.75,6.75,0,0,1,2.46,1.35,2.4,2.4,0,0,1,.79,1.16,1.9,1.9,0,0,1-.38,1.77,5,5,0,0,1-1.86,1.37,12.12,12.12,0,0,1-3.39.94,15.46,15.46,0,0,1-2.8.14,13.16,13.16,0,0,1-5.1-1.1,5,5,0,0,1-1.76-1.28,2,2,0,0,1-.51-1.46,2.18,2.18,0,0,1,.76-1.45,6.5,6.5,0,0,1,2.43-1.4,11.2,11.2,0,0,1,2.49-.55c.42-.05.84-.13,1.26-.17S23.69,10.14,24,10.14ZM20.31,14.7a.64.64,0,0,0,0,.07.27.27,0,0,0,.07.08,7.71,7.71,0,0,0,.75.52,4.8,4.8,0,0,0,1.79.39c.41,0,.41,0,.42.42h0c0,.12,0,.17.16.17h.76c.36,0,.36,0,.37-.37,0-.17,0-.21.2-.23l1.32-.15a2.49,2.49,0,0,0,1.24-.52A.6.6,0,0,0,27.34,14a2.88,2.88,0,0,0-.83-.35c-.81-.17-1.63-.29-2.44-.43-.34-.06-.67-.14-1-.23-.07,0-.17-.11-.17-.18a.27.27,0,0,1,.13-.2,1.34,1.34,0,0,1,.49-.16c.3,0,.61,0,.91,0a1.71,1.71,0,0,1,1.06.39.53.53,0,0,0,.32.08c.32,0,.64-.08,1-.14l.56-.1.05-.08-.15-.07c-.22-.13-.42-.29-.65-.4a5.68,5.68,0,0,0-1.73-.36c-.21,0-.21,0-.21-.23,0,0,0,0,0-.05s0-.17-.18-.17h-.81c-.29,0-.3,0-.3.28,0,.11,0,.15-.15.16l-1.14.15a2.27,2.27,0,0,0-1.19.56.56.56,0,0,0,.08.95,2.5,2.5,0,0,0,.72.34c.78.16,1.57.28,2.36.43.38.06.76.14,1.13.23a.38.38,0,0,1,.21.22.31.31,0,0,1-.18.24,1.79,1.79,0,0,1-.6.17c-.46,0-.93,0-1.4,0a1.08,1.08,0,0,1-.83-.39.36.36,0,0,0-.37-.14l-1.15.12Z"/><path class="cls-1" d="M7.88,2.05h2.19l4.66,0a.5.5,0,0,1,.5.31.48.48,0,0,1-.14.57l-2,2c-.18.17-.34.35-.53.51a.31.31,0,0,1-.2.09H7.75a.3.3,0,0,1-.2-.08L5,2.92a.49.49,0,0,1-.14-.57.49.49,0,0,1,.51-.3Z"/><path class="cls-1" d="M16.16,20.71c.16.15.3.27.45.39a6.94,6.94,0,0,0,2.2,1.24,14.77,14.77,0,0,0,3.27.75,15.11,15.11,0,0,0,2.42.09,14.86,14.86,0,0,0,4.39-.74A7.89,7.89,0,0,0,31.47,21l.17-.17c.05-.05.09-.12.15-.17a1.46,1.46,0,0,1,.09,1,2.63,2.63,0,0,1-1,1.42,7.86,7.86,0,0,1-3.3,1.46c-.72.15-1.45.24-2.18.33-.4.05-.81.06-1.22.07a14.18,14.18,0,0,1-5.28-.86,5.77,5.77,0,0,1-2-1.2,2.46,2.46,0,0,1-.79-1.28A1.8,1.8,0,0,1,16.16,20.71Z"/><path class="cls-1" d="M16.13,23.22c.36.27.68.53,1,.76a8.3,8.3,0,0,0,3.17,1.29,22.24,22.24,0,0,0,2.43.36,17,17,0,0,0,2.14,0A14.24,14.24,0,0,0,29,24.88a7.13,7.13,0,0,0,2.68-1.57l.12-.1a1.56,1.56,0,0,1,.09.9,2.52,2.52,0,0,1-1,1.53,7.88,7.88,0,0,1-3.05,1.41,15.38,15.38,0,0,1-2.43.39c-.53,0-1.05.09-1.58.08a14.46,14.46,0,0,1-5.2-1,5.14,5.14,0,0,1-2.07-1.44,2,2,0,0,1-.51-1.25A5.17,5.17,0,0,1,16.13,23.22Z"/><path class="cls-1" d="M31.84,15.75a2.55,2.55,0,0,1,.09.43,2.16,2.16,0,0,1-.8,1.79,6.85,6.85,0,0,1-2.58,1.41,14,14,0,0,1-2.41.52,15.8,15.8,0,0,1-3,.14,14.08,14.08,0,0,1-3.4-.58,8.16,8.16,0,0,1-2.24-1,3.78,3.78,0,0,1-1.2-1.22,1.85,1.85,0,0,1-.14-1.53l.14.12a7,7,0,0,0,2.45,1.49,12.27,12.27,0,0,0,2.79.7,16.45,16.45,0,0,0,3,.17,14.11,14.11,0,0,0,5.29-1.1,7.38,7.38,0,0,0,1.81-1.17A2.92,2.92,0,0,1,31.84,15.75Z"/><path class="cls-1" d="M16.14,18.19l.26.25a7.91,7.91,0,0,0,3.05,1.63,15,15,0,0,0,2.65.54,16.68,16.68,0,0,0,2.45.09A14.9,14.9,0,0,0,28.79,20a7.82,7.82,0,0,0,2.5-1.29c.18-.14.35-.3.53-.46a1.59,1.59,0,0,1,.06,1,2.62,2.62,0,0,1-.95,1.38,7.81,7.81,0,0,1-3,1.41,13.23,13.23,0,0,1-2.58.42,21.12,21.12,0,0,1-2.25.05,13.27,13.27,0,0,1-4.65-1,5,5,0,0,1-1.86-1.32,2,2,0,0,1-.54-1.27A5.17,5.17,0,0,1,16.14,18.19Z"/><path class="cls-1" d="M16.15,25.67c.19.17.34.32.5.45a7.63,7.63,0,0,0,2.51,1.31,14,14,0,0,0,2.64.6,15.56,15.56,0,0,0,2.81.12,14.17,14.17,0,0,0,4.47-.8A7.62,7.62,0,0,0,31.44,26c.12-.1.24-.22.38-.35,0,.1.06.17.08.25a2,2,0,0,1-.5,1.71,4.83,4.83,0,0,1-1.59,1.17,9.59,9.59,0,0,1-3,.94c-.58.08-1.17.17-1.75.23a8.42,8.42,0,0,1-.87,0,8.68,8.68,0,0,1-1,0c-.66-.06-1.32-.13-2-.24a9.7,9.7,0,0,1-3.06-1,4.4,4.4,0,0,1-1.64-1.32,1.9,1.9,0,0,1-.4-1.17A3.75,3.75,0,0,1,16.15,25.67Z"/></svg>