<svg id="Capa_1" data-name="Capa 1" xmlns="http://www.w3.org/2000/svg" viewBox="0 0 51.82 51.75"><defs><style>.cls-1{fill:#1680c1;}.cls-2{fill:#fff;}</style></defs><path class="cls-1" d="M51.81,24.81A25.78,25.78,0,0,0,43.59,7a25.56,25.56,0,0,0-12-6.33A21.65,21.65,0,0,0,27.9.1C27,.05,26.1,0,25.21,0A26,26,0,0,0,2.45,15,24.17,24.17,0,0,0,.37,21.81c-.14,1-.2,2-.3,3a1.09,1.09,0,0,1-.07.24v1.56a.72.72,0,0,1,.07.25A25.22,25.22,0,0,0,4,39.65a25.59,25.59,0,0,0,10.67,9.53,24.18,24.18,0,0,0,7.09,2.22c.93.14,1.86.23,2.79.29a20.17,20.17,0,0,0,2.33,0,26.19,26.19,0,0,0,6.86-1.19A26,26,0,0,0,51.32,31a20.57,20.57,0,0,0,.45-3.67C51.79,26.48,51.85,25.64,51.81,24.81Z"/><path class="cls-2" d="M42.41,17.85l-.2.21L22.32,37.93a3.13,3.13,0,0,1-2.22,1,3.23,3.23,0,0,1-2.32-1L9.55,29.74a2.88,2.88,0,0,1-.75-3,2.79,2.79,0,0,1,2.15-2,2.92,2.92,0,0,1,2.91.86l5.93,5.92c.24.24.24.24.48,0L37.92,13.87a3.18,3.18,0,0,1,2.23-1,3,3,0,0,1,3,2.63A3,3,0,0,1,42.41,17.85Z"/></svg>