<svg id="Capa_1" data-name="Capa 1" xmlns="http://www.w3.org/2000/svg" viewBox="0 0 32 32"><defs><style>.cls-1{fill:#1f80c1;}</style></defs><path class="cls-1" d="M32,12.22c0,.15-.05.3-.07.45a7,7,0,0,1-1.86,4,8.94,8.94,0,0,1-2.45,1.92.21.21,0,0,0-.12.29,6.1,6.1,0,0,0,1.07,2.09c.33.43.7.83,1.05,1.24l.05.06v.05c-.65-.09-1.31-.15-2-.28a6.92,6.92,0,0,1-3.63-1.88.74.74,0,0,0-.73-.24A10.2,10.2,0,0,1,21.2,20h-.35c.06-.3.12-.56.17-.83a7,7,0,0,0,.09-1.89,7.71,7.71,0,0,0-1.62-4.16,10.49,10.49,0,0,0-4.44-3.31,11.7,11.7,0,0,0-2.39-.7l-.13,0,.06-.13a8,8,0,0,1,2.22-2.67,11,11,0,0,1,5-2.17,11.93,11.93,0,0,1,2.73-.16,11.18,11.18,0,0,1,6.43,2.27,7.76,7.76,0,0,1,2.73,3.77A6.41,6.41,0,0,1,32,11.49a1,1,0,0,0,0,.14ZM20.86,9.9h.52c.11,0,.16,0,.15.14a2.94,2.94,0,0,0,0,.42.4.4,0,0,1-.26.43c-.15.09-.31.17-.45.27a2,2,0,0,0-1,1.86.93.93,0,0,0,.71.84,1.79,1.79,0,0,0,1-.12c.11,0,.25-.12.34-.09s.14.18.2.28.11.1.19,0l.34-.22c.25-.17.25-.17.12-.44s-.07-.22,0-.32a5,5,0,0,0,1.08-1.5c0-.1.09-.11.18-.07a1,1,0,0,1,.26,1.7,6.26,6.26,0,0,1-.78.38c-.09,0-.11.09-.06.18s.15.29.21.45a.13.13,0,0,0,.19.08l.58-.2a1.75,1.75,0,0,0,1.15-1.34A1.61,1.61,0,0,0,25,11c-.2-.14-.44-.24-.66-.37a.2.2,0,0,1-.09-.13c0-.1,0-.13-.1-.15a4.92,4.92,0,0,1-.55-.14c-.12,0-.2,0-.22.11a.16.16,0,0,1-.17.14l-.52.05c-.31,0-.31,0-.31-.29a.61.61,0,0,1,0-.19s.07-.11.11-.11l1-.1,1.27-.11c.11,0,.12-.07.11-.15s-.05-.38-.06-.57,0-.14-.14-.13l-1,.11-1.16.13c-.11,0-.16,0-.16-.14s0-.37,0-.56,0-.13-.14-.14l-.6-.05c-.08,0-.13,0-.14.11s0,.41,0,.62-.05.17-.17.17h-1c-.11,0-.17,0-.16.15s0,.36,0,.54,0,.15.14.14Z"/><path class="cls-1" d="M2.4,28.13a13.43,13.43,0,0,0,1.34-1.69,6.08,6.08,0,0,0,.81-1.73.2.2,0,0,0-.12-.26,8.82,8.82,0,0,1-3.37-3.13,6.69,6.69,0,0,1,.43-7.64A9,9,0,0,1,4.58,11.1a11.22,11.22,0,0,1,4-1.23c.4,0,.81-.07,1.22-.09A11.56,11.56,0,0,1,15.5,11a9,9,0,0,1,3.28,2.69,6.77,6.77,0,0,1,1.33,3.07,6.5,6.5,0,0,1-.91,4.53,8.74,8.74,0,0,1-3.27,3.09,11,11,0,0,1-3.87,1.32,9.75,9.75,0,0,1-1.43.13c-.56,0-1.13,0-1.7,0-.19,0-.38,0-.58-.07a.23.23,0,0,0-.16.06,7.06,7.06,0,0,1-3.4,2,8.39,8.39,0,0,1-1.86.3ZM6.59,22c.35,0,.67,0,1,0,.13,0,.18-.05.22-.16.25-.77.51-1.54.76-2.31a.21.21,0,0,1,.24-.17h2.59c.15,0,.21,0,.25.18.25.76.52,1.52.77,2.28.05.14.11.19.26.18s.56,0,.83,0h.17l-.07-.23-1.25-3.66c-.5-1.46-1-2.92-1.49-4.39a.21.21,0,0,0-.24-.17c-.33,0-.66,0-1,0a.23.23,0,0,0-.26.19q-1.37,4-2.74,8.07A1,1,0,0,1,6.59,22Z"/><path class="cls-1" d="M8.88,18.46h2.44l-1.23-3.75Z"/><path class="cls-1" d="M21.4,13a1.24,1.24,0,0,1-.39.1c-.19,0-.28-.1-.29-.3a.83.83,0,0,1,.16-.57,1.67,1.67,0,0,1,.68-.57"/><path class="cls-1" d="M23.13,11.2l-.61,1h-.05c0-.12,0-.23,0-.35s0-.16,0-.23a.25.25,0,0,1,.23-.31Z"/><path class="cls-1" d="M8.88,18.46l1.21-3.75,1.23,3.75Z"/></svg>