<svg id="Capa_1" data-name="Capa 1" xmlns="http://www.w3.org/2000/svg" viewBox="0 0 32 32"><defs><style>.cls-1{fill:#1f80c1;}</style></defs><path class="cls-1" d="M16,31.93A15.89,15.89,0,0,1,.11,15.9,15.38,15.38,0,0,1,4.87,4.68,15.38,15.38,0,0,1,16.15.11,15.37,15.37,0,0,1,27.41,4.92,15.44,15.44,0,0,1,31.93,16.4,15.9,15.9,0,0,1,16,31.93ZM10.79,14.57l.63-.06.64-.07c.37,0,.74-.07,1.1-.07a1,1,0,0,1,1,1.07,6,6,0,0,1-.09,1c-.16.91-.32,1.83-.52,2.73-.34,1.49-.73,3-1.07,4.47a4.78,4.78,0,0,0-.14,1.73,2.75,2.75,0,0,0,1.21,2,4.29,4.29,0,0,0,2.54.66,7,7,0,0,0,1.2-.13A16.91,16.91,0,0,0,20,27.07a1.17,1.17,0,0,0,.84-1.34c0-.1-.05-.13-.14-.12-.39,0-.78.1-1.17.13a10.26,10.26,0,0,1-1.24,0,.89.89,0,0,1-.86-.85,2.76,2.76,0,0,1,0-.86c.12-.77.24-1.54.43-2.29.4-1.61.83-3.21,1.25-4.82a5.09,5.09,0,0,0,.14-2.16,3,3,0,0,0-2.93-2.56,5.6,5.6,0,0,0-1.63.14c-.71.15-1.41.31-2.11.48a6.45,6.45,0,0,0-1,.25A1.36,1.36,0,0,0,10.79,14.57Zm7.5-5c.24,0,.48,0,.72-.09a3.09,3.09,0,0,0,.59-.18,2.63,2.63,0,0,0,1.3-3.84,3.09,3.09,0,0,0-4.22-1,2.6,2.6,0,0,0-1.3,2,2.53,2.53,0,0,0,1,2.44A3.19,3.19,0,0,0,18.29,9.56Z"/></svg>