<svg id="Capa_1" data-name="Capa 1" xmlns="http://www.w3.org/2000/svg" viewBox="0 0 32 32"><defs><style>.cls-1{fill:#1680c1;}</style></defs><rect class="cls-1" x="24.44" y="18.8" width="3.05" height="14.72" rx="1.53" transform="translate(26.1 -10.7) rotate(45)"/><circle class="cls-1" cx="22.56" cy="22.75" r="1.95"/><path class="cls-1" d="M19,27.27l.64-.63A4.92,4.92,0,0,1,23,18.33a11.88,11.88,0,0,0-.36-1.2,23.59,23.59,0,0,0-2.54-5,49,49,0,0,0-5.25-6.68.41.41,0,0,0-.32-.13H9.15a.4.4,0,0,0-.31.13,49,49,0,0,0-5.25,6.68,23.17,23.17,0,0,0-2.55,5,11,11,0,0,0-.59,2.52c0,.18,0,.36-.08.53v1.17a1.16,1.16,0,0,1,0,.18,23,23,0,0,0,.21,2.74,13.52,13.52,0,0,0,.77,3.13A7.1,7.1,0,0,0,3,29.93a6.5,6.5,0,0,0,2.91,1.59,15.27,15.27,0,0,0,3.8.47H14a15.21,15.21,0,0,0,3.8-.47h0a4.57,4.57,0,0,1-.13-1.05A4.52,4.52,0,0,1,19,27.27Zm-2.68-4.93a3.09,3.09,0,0,1-1.57,1.81,4.75,4.75,0,0,1-1.2.47c-.24.05-.3.17-.29.42a10.47,10.47,0,0,1,0,1.12.28.28,0,0,1-.32.29q-1,0-2,0a.3.3,0,0,1-.33-.33c0-.39,0-.77,0-1.15s-.06-.35-.3-.43a5.9,5.9,0,0,1-2.79-1.72,1.45,1.45,0,0,1-.19-.23.26.26,0,0,1,0-.41c.17-.19.35-.36.54-.54l.83-.77a.67.67,0,0,1,.15-.14.28.28,0,0,1,.43,0c.17.16.32.33.49.48a3.22,3.22,0,0,0,2,.83,3.84,3.84,0,0,0,1.58-.22.66.66,0,0,0,.46-.44.7.7,0,0,0-.35-.86c-.35-.17-.71-.31-1.06-.45-.78-.29-1.57-.55-2.33-.86a3.65,3.65,0,0,1-1.85-1.55,3.52,3.52,0,0,1-.47-1.48,3.34,3.34,0,0,1,1-2.81A3.46,3.46,0,0,1,10,12.56l.09,0c.39-.15.48-.35.44-.77a6.79,6.79,0,0,1,0-1c0-.16.15-.25.33-.25h1.95c.35,0,.43.2.43.48s0,.44,0,.65a1.64,1.64,0,0,1,0,.22c0,.26,0,.37.3.42a6.73,6.73,0,0,1,2.55,1.05l.11.08a.36.36,0,0,1,.09.51c-.12.2-.26.39-.39.58l-.59.94-.1.14c-.16.21-.26.23-.49.1s-.59-.35-.91-.49A3.51,3.51,0,0,0,12,14.87a6.21,6.21,0,0,0-1,.22.74.74,0,0,0-.59.69.82.82,0,0,0,.5.87c.45.2.92.35,1.38.54.74.29,1.47.58,2.19.9a3.21,3.21,0,0,1,1.61,1.34,3.29,3.29,0,0,1,.42,1.34A3.78,3.78,0,0,1,16.34,22.34Z"/><path class="cls-1" d="M6.06,1,8.41,3.36c.2.19.39.4.6.59a.4.4,0,0,0,.23.1h5.24a.46.46,0,0,0,.24-.1l.59-.59L17.66,1a.6.6,0,0,0,.18-.33.59.59,0,0,0,0-.37A.56.56,0,0,0,17.24,0H6.48a.54.54,0,0,0-.57.34.53.53,0,0,0,0,.37A.6.6,0,0,0,6.06,1Z"/><circle class="cls-1" cx="29.41" cy="29.41" r="1.95"/><rect class="cls-1" x="24.44" y="18.8" width="3.05" height="14.72" rx="1.53" transform="translate(26.1 -10.7) rotate(45)"/><circle class="cls-1" cx="22.56" cy="22.75" r="1.95"/><circle class="cls-1" cx="29.41" cy="29.41" r="1.95"/></svg>