<svg id="Capa_1" data-name="Capa 1" xmlns="http://www.w3.org/2000/svg" viewBox="0 0 32 32"><defs><style>.cls-1{fill:#1f80c1;}</style></defs><path class="cls-1" d="M10.7,28H.3c-.23,0-.23,0-.23-.23a17.2,17.2,0,0,1,.84-5.32,11,11,0,0,1,2.83-4.52,10.81,10.81,0,0,1,2.49-1.74.21.21,0,0,1,.24,0,7.79,7.79,0,0,0,3.2,1.14,7.87,7.87,0,0,0,5.19-1.1.33.33,0,0,1,.37,0A10.53,10.53,0,0,1,20.33,22a14.53,14.53,0,0,1,.82,3.24,20.06,20.06,0,0,1,.18,2.57c0,.19,0,.19-.2.19Z"/><path class="cls-1" d="M15.93,9.28A5.27,5.27,0,1,1,10.71,4,5.25,5.25,0,0,1,15.93,9.28Z"/><path class="cls-1" d="M18.73,16.93l1.17-.66a.25.25,0,0,1,.18,0,6.45,6.45,0,0,0,6.66,0,.3.3,0,0,1,.33,0,8.44,8.44,0,0,1,4.13,4.84,11.21,11.21,0,0,1,.61,2.8c.05.52.06,1.05.09,1.57,0,.12,0,.17-.15.16H22.83c-.11,0-.15,0-.17-.14A14.23,14.23,0,0,0,20,18.43c-.37-.49-.81-.94-1.22-1.41Z"/><path class="cls-1" d="M19.22,10.74A4.19,4.19,0,1,1,23.4,15,4.15,4.15,0,0,1,19.22,10.74Z"/></svg>