<svg id="Capa_1" data-name="Capa 1" xmlns="http://www.w3.org/2000/svg" viewBox="0 0 51.72 51.72"><defs><style>.cls-1{fill:#1680c1;}.cls-2{fill:#fff;}</style></defs><circle class="cls-1" cx="25.86" cy="25.86" r="25.86"/><path class="cls-2" d="M31.57,8.91a11.49,11.49,0,0,0-6.7-1.84,18.37,18.37,0,0,0-6.49,1.87,2.33,2.33,0,0,0-1.21,2.91h0a2.32,2.32,0,0,0,2.94,1.39c.94-.32,1.93-.65,2.33-.73a10.4,10.4,0,0,1,1.95-.21A4.35,4.35,0,0,1,28.1,14c1.31,1.73,1.35,3.82.11,6.19a23.69,23.69,0,0,1-1.86,2.89c-.45.64-.91,1.3-1.33,2l-.32.51A44.33,44.33,0,0,0,22.23,30a10,10,0,0,0-.79,4.71,2.83,2.83,0,0,0,2.83,2.69h0a2.83,2.83,0,0,0,2.81-3.13c0-.3-.06-.57-.07-.76-.22-3.52.74-3.73,3.8-7.48a24.77,24.77,0,0,0,3.52-5.71A9.48,9.48,0,0,0,31.57,8.91Z"/><path class="cls-2" d="M24.65,39.07h0a2.79,2.79,0,1,0,0,5.58h.15a2.79,2.79,0,0,0-.15-5.58Z"/></svg>