<svg id="Capa_1" data-name="Capa 1" xmlns="http://www.w3.org/2000/svg" viewBox="0 0 32 32"><defs><style>.cls-1{fill:#1680c1;}</style></defs><path class="cls-1" d="M15.15,6.62a.53.53,0,0,0-.52-.34l-2.78-.06a.18.18,0,0,0-.2.13,10.75,10.75,0,0,1-1,2.17,7,7,0,0,1-1.57,1.81.5.5,0,0,0-.13.19,1.36,1.36,0,0,1-1.22.8,1.3,1.3,0,0,1-1.27-.73,1.3,1.3,0,0,1,.08-1.47,1.34,1.34,0,0,1,1.3-.59.27.27,0,0,0,.27-.09A6.6,6.6,0,0,0,9.27,6.7c.09-.16.16-.34.24-.52H9.33l-2,0c-.17,0-.18,0-.14-.18a10.29,10.29,0,0,1,1-2.61A5.87,5.87,0,0,1,9.47,1.75a1.64,1.64,0,0,1,.63-.38c.16-.05.26,0,.34.11a1.91,1.91,0,0,1,.21.49,4,4,0,0,1,.11,1.46,9.57,9.57,0,0,1-.89,3.32,7.23,7.23,0,0,1-1.34,2,2.12,2.12,0,0,1-1,.65A.48.48,0,0,0,7.3,10a.51.51,0,0,0,.72.25A3.91,3.91,0,0,0,9.5,9.13a9.7,9.7,0,0,0,1.74-3.3,8.71,8.71,0,0,0,.48-3.12A3.35,3.35,0,0,0,11.25,1,1.21,1.21,0,0,0,9.93.43L9.67.49,9.36.63s0,.05-.06.07a3.52,3.52,0,0,0-.84.7A8.66,8.66,0,0,0,6.71,4.33c-.2.53-.33,1.09-.5,1.64,0,.06,0,.14-.11.13a.55.55,0,0,0-.44.25C4.4,8,3.12,9.59,1.85,11.21L.44,13a.46.46,0,0,0-.1.5,1.46,1.46,0,0,0,.07.19Q4.55,22.46,8.7,31.19a.47.47,0,0,0,.05.1.48.48,0,0,0,.71.24q6.9-3.29,13.81-6.54a.49.49,0,0,0,.25-.71Q19.32,15.46,15.15,6.62ZM5,18.57a2.14,2.14,0,1,1,2.86.95A2.13,2.13,0,0,1,5,18.57Zm4.37,8.34A1.67,1.67,0,0,1,8.32,24.8l4-12.11a1.66,1.66,0,1,1,3.16,1.05l-4,12.11A1.67,1.67,0,0,1,9.38,26.91Zm8.45-4.24a2.14,2.14,0,1,1,1-2.87A2.13,2.13,0,0,1,17.83,22.67Z"/><path class="cls-1" d="M16.67,2.24a.52.52,0,0,0-.61-.1L13.45,3.28a8.92,8.92,0,0,1-.11,1.24l1.32,0a2.27,2.27,0,0,1,2.06,1.33Q20.85,14.61,25,23.34l6.55-7.61a.48.48,0,0,0-.06-.74Z"/></svg>