<svg id="Capa_1" data-name="Capa 1" xmlns="http://www.w3.org/2000/svg" viewBox="0 0 32 32"><defs><style>.cls-1{fill:#1680c1;}</style></defs><path class="cls-1" d="M29,0A2.76,2.76,0,0,0,26.7,1.2L14.49,19,8.86,15.61a2.75,2.75,0,1,0-2.71,4.78l10,5.91,15.07-22A2.75,2.75,0,0,0,30.53.48,2.8,2.8,0,0,0,29,0Z"/><path class="cls-1" d="M22.49,2H4.58a4.31,4.31,0,0,0-4.3,4.3V27.71A4.31,4.31,0,0,0,4.58,32H26a4.32,4.32,0,0,0,4.3-4.3V11l-3,4.38V27.71A1.32,1.32,0,0,1,26,29H4.58a1.32,1.32,0,0,1-1.3-1.3V6.33A1.32,1.32,0,0,1,4.58,5H20.44l2-3Z"/></svg>