<svg id="Capa_1" data-name="Capa 1" xmlns="http://www.w3.org/2000/svg" viewBox="0 0 51.74 51.74"><defs><style>.cls-1{fill:#1680c1;}.cls-2{fill:#fff;}</style></defs><path class="cls-1" d="M44.39,7.82A25,25,0,0,0,26.09,0,25,25,0,0,0,7.74,7.43,25,25,0,0,0,0,25.67a25.87,25.87,0,0,0,51.73.82A25.06,25.06,0,0,0,44.39,7.82Z"/><path class="cls-2" d="M33.71,41.66a1.92,1.92,0,0,1-1.37,2.18A26.5,26.5,0,0,1,28,45.12a12.94,12.94,0,0,1-1.95.22,7,7,0,0,1-4.13-1.08,4.47,4.47,0,0,1-2-3.27,7.86,7.86,0,0,1,.23-2.82c.56-2.42,1.19-4.83,1.74-7.26.33-1.47.59-2.95.85-4.43a11.46,11.46,0,0,0,.15-1.55,1.61,1.61,0,0,0-1.66-1.74c-.6,0-1.19.07-1.79.11l-1,.11-1,.09a2.18,2.18,0,0,1,1.37-2.41,11.25,11.25,0,0,1,1.54-.41c1.15-.27,2.29-.53,3.44-.78a9.49,9.49,0,0,1,2.66-.23,5,5,0,0,1,4.75,4.16,8.36,8.36,0,0,1-.22,3.52c-.68,2.61-1.39,5.22-2,7.84-.3,1.22-.5,2.48-.7,3.72a5.05,5.05,0,0,0,0,1.4,1.44,1.44,0,0,0,1.4,1.38,15,15,0,0,0,2,0c.64,0,1.27-.13,1.91-.21C33.62,41.45,33.7,41.5,33.71,41.66Z"/><path class="cls-2" d="M31.68,14.93a5,5,0,0,1-.95.29c-.39.07-.78.1-1.18.14a5.1,5.1,0,0,1-3.05-.94,4.09,4.09,0,0,1-1.67-4,4.25,4.25,0,0,1,2.11-3.33A5,5,0,0,1,33.8,8.69,4.28,4.28,0,0,1,31.68,14.93Z"/></svg>