<?xml version="1.0" encoding="utf-8"?>
<!-- Generator: Adobe Illustrator 26.5.0, SVG Export Plug-In . SVG Version: 6.00 Build 0)  -->
<svg version="1.1" id="Capa_1" xmlns="http://www.w3.org/2000/svg" xmlns:xlink="http://www.w3.org/1999/xlink" x="0px" y="0px"
	 viewBox="0 0 32 32" style="enable-background:new 0 0 32 32;" xml:space="preserve">
<style type="text/css">
	.st0{fill:#1680C1;}
	.st1{fill:none;stroke:#1680C1;stroke-width:2;stroke-miterlimit:10;}
</style>
<g>
	<path class="st0" d="M0,10c0-0.7,0-1.3,0-2c0,0,0,0,0.1,0c0.6,0,1.2,0,1.8,0C2,8,2,7.9,2,7.9c0-0.5,0-1.1,0-1.6C2,6,2,6,2.2,6
		c0.6,0,1.1,0,1.7,0C4,6,4.1,6,4.2,5.9C8.1,4,12,2.1,15.8,0.1C16,0,16.1,0,16.3,0.1C20.1,2,23.9,4,27.8,5.9C27.9,6,28.1,6,28.2,6
		c0.5,0,1,0,1.6,0C30,6,30,6,30,6.2c0,0.5,0,1.1,0,1.6C30,8,30,8,30.2,8c0.5,0,1.1,0,1.6,0C32,8,32,8,32,8.2c0,0.5,0,1.1,0,1.6
		c0,0.1-0.1,0.2-0.2,0.2c-0.5,0-1,0-1.5,0c-0.2,0-0.2,0-0.2,0.2c0,6.5,0,13.1,0,19.6c0,0.1,0,0.1,0,0.2c0.1,0,0.1,0,0.2,0
		c0.4,0,0.9,0,1.3,0c0.3,0,0.4,0.1,0.4,0.4c0,0.4,0,0.8,0,1.3c0,0.2-0.1,0.3-0.3,0.3c-0.1,0-0.1,0-0.2,0c-10.3,0-20.6,0-31,0
		c-0.2,0-0.4,0-0.5-0.1c0-0.5,0-1.1,0-1.6C0.2,30,0.3,30,0.5,30c0.4,0,0.9,0,1.3,0C1.9,30,2,30,2,30c0-0.1,0-0.2,0-0.2
		c0-3.1,0-6.2,0-9.3c0-3.4,0-6.9,0-10.3C2,10,1.9,10,1.8,10c-0.5,0-1.1,0-1.6,0C0.1,10,0,10,0,10z M7,12c0,6,0,12,0,18
		c0.7,0,1.3,0,1.9,0c0,0,0.1,0,0.1-0.1c0,0,0-0.1,0-0.1c0-5.9,0-11.7,0-17.6c0,0,0-0.1,0-0.1C9.1,12,9,12,9,12C8.3,12,7.7,12,7,12z
		 M13.1,21c0-2.9,0-5.8,0-8.8c0-0.3,0-0.3-0.3-0.3c-0.5,0-1,0-1.5,0C11,12,11,11.9,11,12.2c0,5.8,0,11.7,0,17.5c0,0,0,0.1,0,0.1
		c0,0.1,0,0.2,0.2,0.2c0.5,0,1.1,0,1.6,0c0.2,0,0.2,0,0.2-0.2C13.1,26.8,13.1,23.9,13.1,21z M17,30c0-6,0-12,0-18
		c-0.6,0-1.2,0-1.8,0C15,12,15,11.9,15,12.2c0,5.8,0,11.7,0,17.5c0,0,0,0.1,0,0.1c0,0.1,0,0.1,0.1,0.1c0.2,0,0.4,0,0.6,0
		C16.2,30,16.6,30,17,30z M19,12c0,6,0,12,0,18c0.6,0,1.2,0,1.7,0c0.3,0,0.3,0.1,0.3-0.3c0-5.8,0-11.6,0-17.4c0-0.4,0-0.4-0.4-0.4
		C20.1,12,19.6,12,19,12z M23,21c0,2.9,0,5.9,0,8.8c0,0.1,0,0.2,0.2,0.2c0.5,0,1.1,0,1.6,0c0.2,0,0.2,0,0.2-0.2c0-4.6,0-9.1,0-13.7
		c0-1.3,0-2.6,0-4c0-0.1,0-0.2-0.2-0.2c-0.6,0-1.1,0-1.7,0C23,12,23,12,23,12.2C23,15.1,23,18,23,21z"/>
</g>
</svg>
