<svg id="Capa_1" data-name="Capa 1" xmlns="http://www.w3.org/2000/svg" viewBox="0 0 32 32"><defs><style>.cls-1{fill:#1f80c1;}</style></defs><path class="cls-1" d="M0,11a.94.94,0,0,0,.06-.15.86.86,0,0,1,.82-.59H31.12a.83.83,0,0,1,.84.84V25.34a.86.86,0,0,1-.93.85H25.36c-.09,0-.13,0-.12-.12V17.14c0-.22,0-.22-.22-.22H7c-.22,0-.22,0-.22.23V26c0,.22,0,.22-.22.22H1a.91.91,0,0,1-1-.72s0,0,0,0Zm7.09,3.22a.92.92,0,0,0-.93.91.94.94,0,0,0,.92.92A.9.9,0,0,0,8,15.1.87.87,0,0,0,7.09,14.19Zm-2.22.9a.87.87,0,0,0-.91-.9.91.91,0,0,0-.91.91A.94.94,0,0,0,4,16,.91.91,0,0,0,4.87,15.09Z"/><path class="cls-1" d="M24.05,29.58V26.26h0v3.35a.55.55,0,0,1-.56.57H8.73A.66.66,0,0,1,8,29.47c0-.8,0-1.6,0-2.4l0-8c0-.25,0-.51,0-.76s0-.19.18-.19c.65,0,1.3,0,1.95,0H23.84c.23,0,.23,0,.23.23v11.2Zm-8-8.07h6.19c.2,0,.21,0,.21-.21v-.84c0-.24,0-.24-.24-.24H9.81c-.15,0-.21,0-.2.19s0,.57,0,.86,0,.24.24.24Zm0,4H9.79c-.13,0-.18,0-.18.18q0,.47,0,.93c0,.14.05.19.18.18H22.25c.12,0,.17-.05.17-.17,0-.3,0-.6,0-.9s0-.22-.23-.22Zm0-2.64H9.8c-.15,0-.2,0-.19.18s0,.57,0,.86,0,.22.23.22H22.17c.25,0,.25,0,.25-.24v-.8c0-.22,0-.22-.21-.22Z"/><path class="cls-1" d="M16.05,9H8.24C8,9,8,9,8,8.79v-6a.6.6,0,0,1,.68-.67H23.38a.62.62,0,0,1,.69.69v6c0,.2,0,.2-.21.2Z"/></svg>