<svg id="Capa_1" data-name="Capa 1" xmlns="http://www.w3.org/2000/svg" viewBox="0 0 32 32"><defs><style>.cls-1{fill:#1f80c1;}</style></defs><path class="cls-1" d="M16,26.92H8.33c-.28,0-.25,0-.25-.26A11.62,11.62,0,0,1,9,22a7.74,7.74,0,0,1,3.57-3.79.26.26,0,0,1,.3,0,5.77,5.77,0,0,0,2.47.84,5.92,5.92,0,0,0,3.74-.85.23.23,0,0,1,.25,0,7.81,7.81,0,0,1,3.71,4.07,10,10,0,0,1,.72,2.85c.06.55.08,1.1.12,1.65,0,.15,0,.19-.18.19Z"/><path class="cls-1" d="M19.16,16.84a5,5,0,0,0,1.67-2.65l.12.06a6,6,0,0,0,6.16,0,.24.24,0,0,1,.27,0,8,8,0,0,1,4,4.93,10.41,10.41,0,0,1,.45,2.34c0,.44.06.87.09,1.3,0,.13,0,.19-.17.19H24.62c-.12,0-.16,0-.2-.15a9.43,9.43,0,0,0-1.54-3.09,8.82,8.82,0,0,0-3.05-2.54l-.62-.3Z"/><path class="cls-1" d="M11.11,14.33a5.09,5.09,0,0,0,1.64,2.52l-.16.09a9.15,9.15,0,0,0-3,2.13,9.33,9.33,0,0,0-2.09,3.78.24.24,0,0,1-.28.2H.36c-.23,0-.23,0-.22-.23A12.27,12.27,0,0,1,1,18.26a7.79,7.79,0,0,1,3.62-4,.32.32,0,0,1,.34,0,5.74,5.74,0,0,0,2.51.83A5.94,5.94,0,0,0,11,14.36Z"/><path class="cls-1" d="M24,12.94A3.92,3.92,0,1,1,27.9,9,3.91,3.91,0,0,1,24,12.94Z"/><path class="cls-1" d="M11.93,9.09a3.92,3.92,0,1,1-3.8-3.92A3.92,3.92,0,0,1,11.93,9.09Z"/><path class="cls-1" d="M12,13a3.92,3.92,0,1,1,3.77,3.92A3.91,3.91,0,0,1,12,13Z"/></svg>