<svg id="Capa_1" data-name="Capa 1" xmlns="http://www.w3.org/2000/svg" viewBox="0 0 51.82 51.75"><defs><style>.cls-1{fill:#1680c1;}.cls-2{fill:#fff;}</style></defs><path class="cls-1" d="M51.81,24.81A25.78,25.78,0,0,0,43.59,7a25.56,25.56,0,0,0-12-6.33A21.65,21.65,0,0,0,27.9.1C27,.05,26.1,0,25.21,0A26,26,0,0,0,2.45,15,24.17,24.17,0,0,0,.37,21.81c-.14,1-.2,2-.3,3a1.09,1.09,0,0,1-.07.24v1.56a.72.72,0,0,1,.07.25A25.22,25.22,0,0,0,4,39.65a25.59,25.59,0,0,0,10.67,9.53,24.18,24.18,0,0,0,7.09,2.22c.93.14,1.86.23,2.79.29a20.17,20.17,0,0,0,2.33,0,26.19,26.19,0,0,0,6.86-1.19A26,26,0,0,0,51.32,31a20.57,20.57,0,0,0,.45-3.67C51.79,26.48,51.85,25.64,51.81,24.81Z"/><path class="cls-2" d="M38.63,13.46l-.31-.31a3,3,0,0,0-4.15.41L13.6,34.14a3,3,0,0,0-.41,4.14l.31.31a3,3,0,0,0,4.15-.4L38.22,17.61A3,3,0,0,0,38.63,13.46Z"/><path class="cls-2" d="M38.32,38.59l.31-.31a3,3,0,0,0-.41-4.14L17.65,13.56a3,3,0,0,0-4.15-.41l-.31.31a3,3,0,0,0,.41,4.15L34.17,38.19A3,3,0,0,0,38.32,38.59Z"/></svg>