<?xml version="1.0" encoding="utf-8"?>
<!-- Generator: Adobe Illustrator 27.1.0, SVG Export Plug-In . SVG Version: 6.00 Build 0)  -->
<svg version="1.1" id="Capa_1" xmlns="http://www.w3.org/2000/svg" xmlns:xlink="http://www.w3.org/1999/xlink" x="0px" y="0px"
	 viewBox="0 0 32 32" style="enable-background:new 0 0 32 32;" xml:space="preserve">
<style type="text/css">
	.st0{fill:#1680C1;}
	.st1{fill:none;stroke:#1680C1;stroke-width:2;stroke-miterlimit:10;}
</style>
<g>
	<path class="st0" d="M19.59,23.17c0.32-1.34,1.23-2.42,2.43-2.99c0.5-0.24,1.05-0.4,1.63-0.43c0.38-0.02,0.76,0,1.13,0.08
		c1.25,0.26,2.22,0.94,2.91,2.01c0.01,0.02,0.02,0.04,0.04,0.08h-1.91c1.03,1.03,2.06,2.06,3.09,3.09c1.02-1.02,2.05-2.06,3.09-3.09
		h-0.04c-0.59,0-1.18,0-1.76,0c-0.06,0-0.09-0.02-0.12-0.08c-0.13-0.3-0.26-0.6-0.42-0.88c-0.74-1.31-1.81-2.26-3.19-2.86
		c-0.74-0.32-1.51-0.49-2.31-0.52c-0.22-0.01-0.45-0.01-0.67,0.01c-0.29,0.02-0.58,0.05-0.86,0.1c-0.22,0.04-0.42,0.11-0.62,0.17
		c-1.28,0.37-2.37,1.06-3.24,2.11c-0.79,0.94-1.25,2.02-1.43,3.2H19.59z"/>
	<path class="st0" d="M28.29,26.4c-0.32,1.34-1.23,2.42-2.43,2.99c-0.5,0.24-1.05,0.4-1.63,0.43c-0.38,0.02-0.76,0-1.13-0.08
		c-1.25-0.26-2.22-0.94-2.91-2.01c-0.01-0.02-0.02-0.04-0.04-0.08h1.91c-1.03-1.03-2.06-2.06-3.09-3.09
		c-1.02,1.02-2.05,2.06-3.09,3.09h0.04c0.59,0,1.18,0,1.76,0c0.06,0,0.09,0.02,0.12,0.08c0.13,0.3,0.26,0.6,0.42,0.88
		c0.74,1.31,1.81,2.26,3.19,2.86c0.74,0.32,1.51,0.49,2.31,0.52c0.22,0.01,0.45,0.01,0.67-0.01c0.29-0.02,0.58-0.05,0.86-0.1
		c0.22-0.04,0.42-0.11,0.62-0.17c1.28-0.37,2.37-1.06,3.24-2.11c0.79-0.94,1.25-2.02,1.43-3.2H28.29z"/>
</g>
<g>
	<path class="st0" d="M13.26,0C5.94,0,0,5.94,0,13.26s5.94,13.26,13.26,13.26c0.34,0,0.68-0.03,1.02-0.05
		c0.06-0.08,0.11-0.17,0.18-0.24l1.57-1.57c-0.07-0.06-0.14-0.12-0.21-0.19c-0.38-0.44-0.55-1.03-0.46-1.61
		c0.25-1.58,0.88-2.98,1.88-4.18c1.11-1.33,2.53-2.25,4.22-2.74l0.14-0.04c0.22-0.07,0.43-0.13,0.66-0.18
		c0.35-0.07,0.71-0.1,1.07-0.13c0.2-0.02,0.4-0.02,0.6-0.02c0.11,0,0.22,0,0.33,0.01c0.69,0.03,1.36,0.15,2,0.33
		c0.17-0.85,0.26-1.74,0.26-2.64C26.53,5.94,20.59,0,13.26,0z M16.95,16.57c-0.24,0.68-0.72,1.14-1.35,1.45
		c-0.29,0.14-0.61,0.24-0.91,0.34c-0.22,0.07-0.28,0.18-0.26,0.41c0.02,0.28,0.02,0.57,0,0.86c-0.01,0.21-0.09,0.26-0.31,0.26
		c-0.26,0-0.53,0-0.79,0c-0.27,0-0.54,0-0.81,0c-0.22,0-0.29-0.07-0.29-0.29c0-0.29,0-0.57,0-0.86c0-0.3-0.04-0.37-0.33-0.45
		c-0.49-0.14-0.95-0.36-1.37-0.65c-0.36-0.25-0.69-0.54-0.98-0.88c-0.17-0.19-0.16-0.27,0.01-0.44c0.37-0.36,0.74-0.71,1.12-1.06
		c0.23-0.21,0.29-0.21,0.5,0.02c0.37,0.41,0.8,0.73,1.33,0.89c0.68,0.2,1.36,0.17,2.02-0.08c0.25-0.09,0.39-0.28,0.4-0.55
		c0.01-0.26-0.1-0.47-0.34-0.58c-0.29-0.14-0.6-0.27-0.9-0.38c-0.67-0.25-1.35-0.47-2.01-0.75c-0.94-0.4-1.58-1.09-1.79-2.12
		c-0.31-1.48,0.42-2.81,1.84-3.34c0.02-0.01,0.04-0.01,0.06-0.02c0.39-0.14,0.48-0.31,0.44-0.72c-0.02-0.26-0.01-0.53,0-0.79
		c0-0.12,0.1-0.2,0.24-0.2c0.56,0,1.13-0.01,1.69,0c0.2,0,0.28,0.13,0.27,0.39c0,0.18,0,0.36,0,0.54c0,0.05-0.01,0.1-0.01,0.15
		c-0.03,0.24,0.04,0.35,0.28,0.4c0.72,0.13,1.38,0.4,1.99,0.79c0.06,0.04,0.11,0.07,0.17,0.11c0.18,0.14,0.21,0.27,0.08,0.46
		c-0.27,0.42-0.55,0.85-0.83,1.27c-0.03,0.04-0.06,0.08-0.09,0.12c-0.08,0.09-0.17,0.12-0.27,0.06c-0.13-0.08-0.26-0.16-0.39-0.24
		c-0.54-0.32-1.13-0.49-1.76-0.47c-0.39,0.01-0.77,0.07-1.14,0.22c-0.24,0.1-0.4,0.27-0.43,0.53c-0.04,0.29,0.03,0.57,0.3,0.73
		c0.24,0.14,0.5,0.23,0.76,0.34c0.77,0.31,1.55,0.6,2.32,0.92c0.49,0.21,0.93,0.5,1.25,0.95c0.26,0.36,0.4,0.77,0.45,1.21
		C17.14,15.61,17.12,16.1,16.95,16.57z"/>
</g>
</svg>
