<svg id="Capa_1" data-name="Capa 1" xmlns="http://www.w3.org/2000/svg" viewBox="0 0 32 32"><defs><style>.cls-1{fill:#1f80c1;}</style></defs><path class="cls-1" d="M4.47,31.78a.28.28,0,0,1-.08-.06L2.44,29.77a.67.67,0,0,1-.09-.21.27.27,0,0,1,0-.09V2.52a.48.48,0,0,1,.15-.37q.93-.9,1.86-1.83c.09-.09.14-.08.23,0C5.32,1,6.05,1.57,6.77,2.21c.11.1.17.09.28,0L9.1.18l.11-.1A1.36,1.36,0,0,0,9.33.2c.65.65,1.29,1.3,1.94,1.94.21.21.17.21.38,0C12.29,1.5,12.93.85,13.58.21l.1-.16.48.46L15.88,2.2c.11.11.17.1.26,0,.67-.7,1.34-1.38,2-2.07l.09-.08c.22.21.44.41.65.63l1.49,1.53c.13.14.24.13.37,0l2-2,.1-.09.54.52L25,2.2c.1.11.17.1.27,0l2.19-2,.08-.06.1.09c.64.64,1.27,1.28,1.91,1.91a.36.36,0,0,1,.12.28q0,13.62,0,27.24a.35.35,0,0,1-.09.25c-.64.58-1.29,1.15-1.94,1.72l-.1.07L26.67,31,25.2,29.75c-.1-.08-.16-.07-.25,0l-2.08,2.05-.09.08-.52-.5-1.62-1.58c-.15-.15-.15-.15-.3,0-.66.68-1.33,1.35-2,2l-.07.06-.71-.69L16.1,29.78c-.1-.1-.16-.1-.27,0-.66.69-1.32,1.37-2,2.05,0,0-.07.06-.1.1l-.58-.57L11.54,29.7c-.1-.11-.16-.09-.26,0-.66.69-1.34,1.39-2,2.09-.08.08-.13.08-.22,0l-2-2c-.2-.2-.16-.2-.38,0L4.52,31.74Zm11.61-18h10.6c.24,0,.24,0,.24-.23v-2c0-.27,0-.24-.24-.24H5.47c-.2,0-.21,0-.21.2v2c0,.24,0,.24.25.24Zm0,2.1H5.47c-.21,0-.21,0-.21.21v2c0,.26,0,.26.26.26H26.69c.23,0,.23,0,.23-.22v-2c0-.21,0-.21-.21-.21Zm-.05-6.66H26.72c.2,0,.2,0,.2-.19,0-.69,0-1.37,0-2.06,0-.13,0-.18-.17-.18H5.44c-.15,0-.18,0-.18.19,0,.68,0,1.35,0,2,0,.21,0,.21.23.21Zm0,13.65H26.71c.21,0,.21,0,.21-.21v-2c0-.21,0-.21-.2-.21H5.47c-.21,0-.21,0-.21.21v2c0,.23,0,.23.23.23Z"/></svg>