<svg id="Capa_1" data-name="Capa 1" xmlns="http://www.w3.org/2000/svg" viewBox="0 0 32 32"><defs><style>.cls-1{fill:#1680c1;}</style></defs><path class="cls-1" d="M31.71,21.5c-.24-.69-.91-.73-1.5-.44a7.53,7.53,0,0,0-1.1.55c-1.55,1.08-3.08,2.21-4.64,3.27A6,6,0,0,1,22.39,26c-2.71.44-5.43.73-8.15,1h-.06c-.43-.05-.47-.79-.07-1l.11,0c2.18-.29,4.36-.53,6.55-.79a1.82,1.82,0,0,0,1.7-2,1.78,1.78,0,0,0-1.78-1.89c-2,0-4.05,0-6.07-.08a5,5,0,0,1-1.69-.23c-2.69-1-4.54-1.39-10.84,1.27A12.75,12.75,0,0,1,0,22.48v8.64c1.22.48,5.86.2,6,.21,3.87.2,7.75.39,11.62.65a6.47,6.47,0,0,0,4.56-1.31c2.88-2.16,5.8-4.24,8.69-6.37a3.27,3.27,0,0,0,1-1.2A2.71,2.71,0,0,0,31.71,21.5Z"/><rect class="cls-1" x="13.71" y="-2.29" width="4.58" height="22.07" rx="1.53" transform="translate(10.87 -8.75) rotate(45)"/><circle class="cls-1" cx="10.9" cy="3.64" r="2.93"/><circle class="cls-1" cx="21.17" cy="13.63" r="2.93"/></svg>