<svg id="Capa_1" data-name="Capa 1" xmlns="http://www.w3.org/2000/svg" viewBox="0 0 32 32"><defs><style>.cls-1{fill:#1f80c1;}</style></defs><path class="cls-1" d="M2.88,20c-.23,0-.23,0-.23.23,0,.59,0,1.18,0,1.77,0,.15,0,.19.19.19H10c.23,0,.23,0,.23.23,0,1,0,2,0,3a3.36,3.36,0,0,0,.47,1.71,2.61,2.61,0,0,0,1.19,1l.21.08,0,0-1.92,2-.31-.31c-.54-.56-1.08-1.11-1.62-1.68-.1-.1-.15-.11-.26,0L6.3,30l-.16.21-.59-.58L4.2,28.28c-.09-.09-.15-.1-.24,0-.61.55-1.22,1.08-1.83,1.62l-.19.17L1.83,30,.17,28.3A.36.36,0,0,1,0,28q0-12,0-24a.34.34,0,0,1,.12-.28L1.85,2.08C1.91,2,2,2,2,2.06L4,3.75c.1.09.16.09.26,0L6,2c.1-.1.15-.09.25,0L8,3.73c.1.1.16.12.27,0L10,2a1.7,1.7,0,0,0,.1-.14l.22.19,1.72,1.69c.1.11.16.11.27,0,.59-.62,1.19-1.23,1.78-1.84l.08-.07.52.53,1.34,1.37c.18.18.23.18.4,0C17,3.15,17.58,2.56,18.13,2l.13-.13.64.63c.43.41.85.82,1.27,1.25.1.1.17.1.27,0l1.9-1.69.1-.08.1.08,1.67,1.68a.38.38,0,0,1,.11.25v7.46c0,.13,0,.18-.17.18l-2.43,0-8,0a4.77,4.77,0,0,0-1.79.26.63.63,0,0,1-.24,0H2.87c-.22,0-.22,0-.22.22v1.75c0,.21,0,.21.22.21h7.38c0,.21,0,.39,0,.57q0,.55,0,1.11c0,.15-.05.19-.2.19H2.94c-.29,0-.29,0-.29.28v1.69c0,.21,0,.21.21.21H10c.14,0,.18,0,.18.17,0,.52,0,1.05,0,1.57,0,.09,0,.13-.13.12H9.93M2.66,10H21.74c.14,0,.18,0,.18-.18,0-.6,0-1.19,0-1.79,0-.19,0-.19-.2-.19H2.66Z"/><path class="cls-1" d="M21.42,18.74h10.3c.24,0,.24,0,.24.25,0,2,0,4,0,5.93A2.92,2.92,0,0,1,29,27.82c-5.24,0-10.47,0-15.7,0a2.39,2.39,0,0,1-1.79-.67,2.26,2.26,0,0,1-.6-1.34,3.77,3.77,0,0,1,0-.67l0-6.14c0-.23,0-.23.23-.23Zm4.52.72h-.46c-.14,0-.21.06-.2.2s0,.31,0,.46a.28.28,0,0,1-.2.3l-.15.06a1.66,1.66,0,0,0-1,2A1.71,1.71,0,0,0,25,23.66c.31.13.63.24.94.36l.65.25a.34.34,0,0,1,.21.37.3.3,0,0,1-.25.26A2.56,2.56,0,0,1,26,25a1.64,1.64,0,0,1-1.29-.56c-.13-.16-.19-.16-.34,0L23.8,25c-.17.17-.18.21,0,.4a2.83,2.83,0,0,0,1.25.81c.23.07.24.08.24.32s0,.27,0,.41a.18.18,0,0,0,.2.21h.93a.19.19,0,0,0,.19-.23v-.33c0-.28,0-.28.28-.37a1.64,1.64,0,0,0,1.25-2,1.5,1.5,0,0,0-.93-1.12l-1.12-.46c-.21-.08-.43-.15-.63-.24a.36.36,0,0,1-.22-.38.31.31,0,0,1,.23-.32,3.59,3.59,0,0,1,.73-.12,1.84,1.84,0,0,1,1.05.35c.17.11.22.1.34-.08L28,21.2c.14-.21.13-.28-.09-.42a3.17,3.17,0,0,0-1.14-.47c-.13,0-.17-.09-.17-.21s0-.29,0-.44a.18.18,0,0,0-.2-.2ZM14.85,25.88h1.08a.6.6,0,0,0,.62-.6c0-.73,0-1.45,0-2.18a.62.62,0,0,0-.6-.61H13.76a.6.6,0,0,0-.59.61v2.17a.59.59,0,0,0,.6.61Z"/><path class="cls-1" d="M21.4,16.08H11.11c-.25,0-.24,0-.23-.25,0-.42,0-.84,0-1.26a2.16,2.16,0,0,1,1.26-2,2.86,2.86,0,0,1,1.19-.25H26.22c1.14,0,2.28,0,3.43,0A2.32,2.32,0,0,1,32,14.64v1.24c0,.2,0,.2-.2.2H21.4Z"/><path class="cls-1" d="M14.19,30.14l-1.9-1.86a23.13,23.13,0,0,0,3.6.15Z"/><path class="cls-1" d="M18.25,30.14l-1.71-1.71H20Z"/><path class="cls-1" d="M24,28.43,22.53,30c-.06.06-.1.08-.17,0l-1.73-1.5,0,0Z"/></svg>