<svg id="Capa_1" data-name="Capa 1" xmlns="http://www.w3.org/2000/svg" viewBox="0 0 32 32"><defs><style>.cls-1{fill:#1f80c1;}</style></defs><path class="cls-1" d="M15.13,31.12H26.78a5.44,5.44,0,0,0,.57,0,3.29,3.29,0,0,0,2.35-1.37,3.88,3.88,0,0,0,.63-2.54c0-.28,0-.56,0-.84s0-.23-.23-.23H15.27A3.54,3.54,0,0,1,14,25.89a3.43,3.43,0,0,1-2.23-3.23c0-.35,0-.7,0-1l0-3.94V15.19l0-5.82a3.9,3.9,0,0,1,0-.59,3.23,3.23,0,0,1,2-2.63,3.89,3.89,0,0,1,1.62-.26H30.18c.1,0,.13,0,.13-.14V5a11.2,11.2,0,0,0,0-1.16A3.31,3.31,0,0,0,29.07,1.6,3,3,0,0,0,27.29.89c-1,0-2,0-3,0L6.43.88h-3a3.38,3.38,0,0,0-2.18.75A3.09,3.09,0,0,0,.08,4.07c0,.53,0,1.07,0,1.6q0,11,0,22.1a3.81,3.81,0,0,0,.07.75,3.17,3.17,0,0,0,1.23,1.9,3.26,3.26,0,0,0,2.07.7C7.34,31.11,11.23,31.12,15.13,31.12Z"/><path class="cls-1" d="M32,22.68H16.69a1.47,1.47,0,0,1-1.44-1.21,1.51,1.51,0,0,1,0-.3c0-3.45,0-6.91,0-10.36a1.47,1.47,0,0,1,1.21-1.49,1.23,1.23,0,0,1,.27,0H32ZM24.46,16a2.54,2.54,0,0,0-5.08,0,2.54,2.54,0,1,0,5.08,0Z"/><path class="cls-1" d="M15.13,31.12c-3.9,0-7.79,0-11.68,0a3.26,3.26,0,0,1-2.07-.7,3.17,3.17,0,0,1-1.23-1.9,3.81,3.81,0,0,1-.07-.75q0-11.06,0-22.1c0-.53,0-1.07,0-1.6a3.09,3.09,0,0,1,1.2-2.44A3.38,3.38,0,0,1,3.46.88h3L24.3.86c1,0,2,0,3,0a3,3,0,0,1,1.78.71A3.31,3.31,0,0,1,30.3,3.85a11.2,11.2,0,0,1,0,1.16v.74c0,.1,0,.15-.13.14H15.47a3.89,3.89,0,0,0-1.62.26,3.23,3.23,0,0,0-2,2.63,3.9,3.9,0,0,0,0,.59l0,5.82v2.49l0,3.94c0,.34,0,.69,0,1A3.43,3.43,0,0,0,14,25.89a3.54,3.54,0,0,0,1.25.22H30.08c.23,0,.23,0,.23.23s0,.56,0,.84a3.88,3.88,0,0,1-.63,2.54,3.29,3.29,0,0,1-2.35,1.37,5.44,5.44,0,0,1-.57,0Z"/></svg>