<svg id="Capa_1" data-name="Capa 1" xmlns="http://www.w3.org/2000/svg" viewBox="0 0 32 32"><defs><style>.cls-1{fill:#1680c1;}</style></defs><path class="cls-1" d="M32,21.89a1.12,1.12,0,0,0-.05-.31.81.81,0,0,0-.82-.52H.9a.82.82,0,0,0-.86.63s0,0,0,.08v6.54l0,.05A.82.82,0,0,0,1,29h30.2a.8.8,0,0,0,.84-.83ZM16,25.68a.65.65,0,0,1-.65-.64.66.66,0,0,1,.65-.65.64.64,0,0,1,.63.65A.63.63,0,0,1,16,25.68Z"/><path class="cls-1" d="M4.21,19.05H28c0-.08,0-.13,0-.18L27.37,16Q26.68,12.58,26,9.2c0-.13-.08-.16-.2-.16H23.17C23,9.05,23,9,23,8.86c0-.57,0-1.14,0-1.71,0-.2,0-.2.2-.2h4.46c.24,0,.32-.08.32-.32V3.32c0-.26-.08-.34-.34-.34H16.35c-.27,0-.33.07-.33.34V6.59c0,.3.05.35.36.35h4.46c.13,0,.17,0,.17.17,0,.57,0,1.14,0,1.71,0,.23,0,.23-.23.23H14.33c-.23,0-.23,0-.23.22v4.88c0,.21,0,.21-.22.21H7.4c-.08,0-.12,0-.12-.11a.75.75,0,0,0,0-.15V9.25c0-.2,0-.2-.21-.2H6.25c-.21,0-.22,0-.26.21-.21,1-.41,2-.62,3.06C4.93,14.5,4.48,16.67,4,18.84,4,19.05,4,19.05,4.21,19.05Zm12.45-.85a.67.67,0,0,1,0-1.34.65.65,0,0,1,.66.67A.66.66,0,0,1,16.66,18.2Zm4,0a.7.7,0,0,1-.67-.67.67.67,0,1,1,.67.67Zm4,0a.67.67,0,0,1,0-1.34.67.67,0,0,1,0,1.34ZM17.83,5.92c-.22,0-.25,0-.25-.24V4.06c0-.19,0-.21.21-.21h8.38c.22,0,.24,0,.24.24V5.68c0,.2,0,.24-.24.24Zm-1.28,4.3h8a.73.73,0,0,1,.67.35.85.85,0,0,1,.09.32c0,.6,0,1.2,0,1.79a.74.74,0,0,1-.74.73c-1.11,0-2.22,0-3.33,0h-4.7a.73.73,0,0,1-.79-.78V11A.74.74,0,0,1,16.55,10.22Z"/><path class="cls-1" d="M8.36,13.47H13c.14,0,.18-.05.18-.19V5.22s0-.1,0-.17l-.28.25a.12.12,0,0,1-.17,0,2.34,2.34,0,0,0-.3-.25.15.15,0,0,0-.13,0l-.26.26c-.07.07-.13.07-.2,0L11.5,5l-.36.44L10.7,5l-.32.32c-.07.08-.12.07-.2,0A4.38,4.38,0,0,0,9.81,5l-.36.42L9,5c-.12.1-.23.19-.33.29s-.14.08-.21,0L8.19,5a.77.77,0,0,1,0,.1v8.22C8.18,13.45,8.24,13.47,8.36,13.47Zm.4-7.18s0,0,.08-.06h.1c1.17,0,2.34,0,3.51,0,.14,0,.19,0,.18.19s0,.28,0,.44H8.76C8.76,6.66,8.75,6.48,8.76,6.29ZM8.92,7.6h3.52c.14,0,.21,0,.19.19a1.82,1.82,0,0,0,0,.33c0,.11-.05.15-.15.14H9c-.2,0-.2,0-.2-.2s0-.2,0-.3S8.8,7.6,8.92,7.6Zm3.47,2H8.94c-.15,0-.2-.05-.19-.19a1.77,1.77,0,0,0,0-.23C8.75,9,8.75,9,9,9h3.43c.21,0,.21,0,.21.21v.21C12.63,9.64,12.63,9.64,12.39,9.64Zm.24.77c0,.18,0,.35,0,.51s-.06.08-.1.1-.06,0-.09,0H9c-.2,0-.2,0-.2-.2s0-.24,0-.36a.15.15,0,0,1,0-.06ZM8.75,11.9c0-.09,0-.12.13-.12h3.63c.09,0,.12,0,.12.12a2.16,2.16,0,0,0,0,.36c0,.12,0,.15-.16.15H8.9c-.11,0-.16,0-.15-.15A2.16,2.16,0,0,0,8.75,11.9Z"/></svg>