<svg id="Capa_1" data-name="Capa 1" xmlns="http://www.w3.org/2000/svg" viewBox="0 0 32 32"><defs><style>.cls-1{fill:#1f80c1;}</style></defs><path class="cls-1" d="M23.48,20.52a2.73,2.73,0,0,1,.2-.25c.18-.18.29-.18.47,0l4,4.05L31,27.12l.65.66a.35.35,0,0,1,0,.54l-3.45,3.45a.35.35,0,0,1-.51,0l-.09-.09-6.16-6.16-1.19-1.18a.37.37,0,0,1,0-.61c.07-.08.07-.13,0-.21l-1.36-1.35c-.09-.09-.15-.06-.24,0a12.07,12.07,0,0,1-3.13,1.46,10.08,10.08,0,0,1-2.24.43,16.27,16.27,0,0,1-1.85.05A11.26,11.26,0,0,1,7,23.05,11.91,11.91,0,0,1,.56,15.74a9.72,9.72,0,0,1-.49-2.5A13,13,0,0,1,0,11.72,12,12,0,0,1,6.84,1.31,10.92,10.92,0,0,1,10.4.25a14.37,14.37,0,0,1,2-.11A11.73,11.73,0,0,1,17.7,1.57a12,12,0,0,1,6.19,8.77A10.83,10.83,0,0,1,24,12.75a11.8,11.8,0,0,1-2,6.05.19.19,0,0,0,0,.3l1.27,1.27ZM4,12.13a8,8,0,1,0,8.16-8A8,8,0,0,0,4,12.13Z"/></svg>