<svg id="Capa_1" data-name="Capa 1" xmlns="http://www.w3.org/2000/svg" viewBox="0 0 32 32"><defs><style>.cls-1{fill:#1f80c1;}</style></defs><path class="cls-1" d="M23.88,17.92V31.38c0,.31-.12.44-.44.46H4.71c-.49,0-.68-.19-.68-.68V4.67a.64.64,0,0,1,.14-.48A.53.53,0,0,1,4.58,4H23.5c.31,0,.38.06.38.37ZM14,18h7.69c.22,0,.32-.09.33-.28V16.2a.28.28,0,0,0-.27-.28H6.27a.27.27,0,0,0-.3.31v1.39c0,.3.07.36.36.36Zm0,4h7.7c.21,0,.31-.09.32-.28v-1.5a.28.28,0,0,0-.29-.28H6.27c-.2,0-.3.1-.3.31v1.37c0,.32.07.38.38.38Zm0,4h7.67c.24,0,.34-.09.34-.34V24.3c0-.35-.07-.42-.42-.42H6.3c-.24,0-.33.09-.33.32v1.36c0,.31.07.38.38.38ZM14,14h7.69c.21,0,.31-.09.32-.28v-1.5a.28.28,0,0,0-.26-.28H6.26c-.2,0-.29.11-.29.31v1.41c0,.27.07.34.35.34Zm0-4h7.69c.23,0,.32-.08.32-.3V8.28c0-.22-.09-.3-.3-.3H6.27c-.22,0-.3.07-.3.31V9.68C6,10,6,10,6.31,10Z"/><path class="cls-1" d="M28,13.94V27.21c0,.47-.18.65-.65.65s-.4,0-.4-.39V1.28A.3.3,0,0,0,26.63,1H8.25C8,1,8,1,8,.76V.67C8,.24,8.2,0,8.63,0H27.35c.42,0,.6.19.6.6Z"/><path class="cls-1" d="M25.88,15.91V29.32c0,.31-.11.42-.42.42H25c-.08,0-.12,0-.12-.11V3.29A.32.32,0,0,0,24.63,3H6.21C6,3,6,3,6,2.75V2.31A.27.27,0,0,1,6.27,2H25.48c.29,0,.4.11.4.41Z"/></svg>