<svg id="Capa_1" data-name="Capa 1" xmlns="http://www.w3.org/2000/svg" viewBox="0 0 32 32"><defs><style>.cls-1{fill:#1f80c1;}</style></defs><path class="cls-1" d="M16,31.87c-.71,0-1.42,0-2.13,0-.13,0-.19,0-.21-.17-.24-1.22-.49-2.43-.73-3.64a.42.42,0,0,0-.34-.38,10.39,10.39,0,0,1-2.46-1,.36.36,0,0,0-.44,0l-3.1,2.06c-.11.07-.17.08-.26,0l-3.06-3a.17.17,0,0,1,0-.26l2.06-3.09a.39.39,0,0,0,0-.47,10.73,10.73,0,0,1-1-2.43.44.44,0,0,0-.39-.35c-1.21-.24-2.42-.49-3.64-.72-.13,0-.17-.08-.17-.22,0-1.43,0-2.86,0-4.29,0-.12,0-.18.17-.2L4,12.9a.38.38,0,0,0,.32-.3,10.74,10.74,0,0,1,1-2.48.38.38,0,0,0,0-.46c-.7-1-1.39-2.09-2.08-3.13-.07-.09-.06-.14,0-.22L6.32,3.25a.14.14,0,0,1,.22,0c1,.69,2.1,1.38,3.14,2.08a.34.34,0,0,0,.42,0,11.53,11.53,0,0,1,2.54-1.05A.31.31,0,0,0,12.88,4c.25-1.23.51-2.47.75-3.7,0-.15.09-.2.25-.2h4.24c.15,0,.2,0,.23.19.24,1.23.5,2.45.74,3.68a.36.36,0,0,0,.29.32,10,10,0,0,1,2.51,1,.36.36,0,0,0,.42,0l3.11-2.07c.11-.07.17-.07.26,0l3.05,3a.19.19,0,0,1,0,.28l-2,3a.45.45,0,0,0,0,.53,11.59,11.59,0,0,1,1,2.47.34.34,0,0,0,.28.27l3.17.64.56.11c.13,0,.17.07.17.2,0,1.15,0,2.29,0,3.44,0,.29,0,.58,0,.88,0,.11,0,.15-.15.18l-3.66.73a.44.44,0,0,0-.4.37,10.86,10.86,0,0,1-1,2.44.35.35,0,0,0,0,.42c.68,1,1.36,2.06,2,3.08.08.13.09.2,0,.31l-3,3c-.09.09-.14.09-.25,0l-3.09-2.06a.39.39,0,0,0-.48,0,10.39,10.39,0,0,1-2.44,1,.41.41,0,0,0-.34.37c-.22,1.16-.46,2.31-.69,3.46-.08.36-.08.36-.44.36Zm0-10.34A5.54,5.54,0,1,0,10.45,16,5.52,5.52,0,0,0,16,21.53Z"/></svg>