<?xml version="1.0" encoding="utf-8"?>
<!-- Generator: Adobe Illustrator 26.5.0, SVG Export Plug-In . SVG Version: 6.00 Build 0)  -->
<svg version="1.1" id="Capa_1" xmlns="http://www.w3.org/2000/svg" xmlns:xlink="http://www.w3.org/1999/xlink" x="0px" y="0px"
	 viewBox="0 0 32 32" style="enable-background:new 0 0 32 32;" xml:space="preserve">
<style type="text/css">
	.st0{fill:#1680C1;}
	.st1{fill:none;stroke:#1680C1;stroke-width:2;stroke-miterlimit:10;}
</style>
<g>
	<path class="st0" d="M5.1,21.1c0-2.7,0-5.5,0-8.2c0-1.1,0.6-1.9,1.6-2.4c0.4-0.2,0.8-0.3,1.2-0.3c0.1,0,0.2,0,0.3,0
		c0.2,0,0.2,0,0.2-0.2c0-0.7,0-1.5,0-2.2C8.4,6,8.9,4.4,10,3c1.2-1.6,2.8-2.5,4.8-2.8C15.4,0,15.9,0,16.5,0c1.6,0.1,3,0.7,4.3,1.7
		c1.3,1.1,2.2,2.4,2.6,4.1c0.1,0.5,0.2,1,0.2,1.5c0,0.9,0,1.8,0,2.6c0,0.1,0,0.2,0.2,0.2c0.5,0,0.9,0,1.4,0.2c1,0.4,1.5,1.1,1.7,2.2
		c0,0.1,0,0.3,0,0.4c0,5.4,0,10.9,0,16.3c0,1.4-0.9,2.5-2.3,2.7c-0.1,0-0.3,0-0.4,0c-5.5,0-10.9,0-16.4,0c-1.3,0-2.5-1-2.6-2.3
		c0-0.2,0-0.3,0-0.5C5.1,26.5,5.1,23.8,5.1,21.1z M16.2,10.1c1.7,0,3.4,0,5.1,0c0.1,0,0.2,0,0.2-0.2c0-0.8,0-1.5,0-2.3
		c0-0.5-0.1-0.9-0.2-1.3c-0.7-2.5-3.2-4.2-5.9-3.8C14,2.8,12.9,3.4,12,4.5c-0.8,0.9-1.2,2-1.2,3.2c0,0.8,0,1.5,0,2.3
		c0,0.2,0,0.2,0.2,0.2C12.8,10.1,14.5,10.1,16.2,10.1z M12.9,26.3c0.1,0,0.1,0,0.2,0c1.9,0,3.8,0,5.7,0c0.2,0,0.2,0,0.2-0.2
		c-0.5-1.5-1-3-1.5-4.5c0-0.1,0-0.2,0.1-0.3c0.7-0.6,0.9-1.4,0.7-2.3c-0.2-1.1-1.3-2-2.6-1.8c-1.1,0.1-2.1,1.1-2.1,2.4
		c0,0.7,0.3,1.3,0.8,1.8c0.1,0.1,0.1,0.1,0.1,0.2c-0.5,1.5-1,3-1.5,4.5C13,26.2,13,26.3,12.9,26.3z"/>
</g>
</svg>
