<?xml version="1.0" encoding="UTF-8"?><svg id="a" xmlns="http://www.w3.org/2000/svg" viewBox="0 0 256 256"><defs><style>.b{fill:#1980c2;}</style></defs><path class="b" d="M200.58,67.59l-24.81-12.41c-.39,.4-.77,.8-1.16,1.19-12.21,12.21-26.11,20.47-37.66,22.62-2.29,2.34-5.49,3.79-9.03,3.79-6.98,0-12.64-5.66-12.64-12.64s5.66-12.64,12.64-12.64c2.95,0,5.67,1.02,7.82,2.71,2-.58,4.61-1.59,7.86-3.34,4.87-2.62,9.84-6.21,14.58-10.49l-19.32-9.66c2.28-2.92,4.82-5.8,7.56-8.54,6.01-6.01,12.58-11.01,18.99-14.46,7.55-4.06,12.37-4.67,14.59-4.67,1.51,0,2.73,.29,3.21,.77,.91,.91,1.45,4.83-1,11.45-2.98,8.05-9.31,17.29-17.36,25.34-6.01,6.01-12.58,11.01-18.99,14.46-7.56,4.07-12.39,4.67-14.6,4.67-.51,0-.98-.04-1.4-.1-.19-.03-.38-.06-.54-.1-.17-.02-.35-.03-.53-.03-2.51,0-4.54,2.03-4.54,4.54,0,2.04,1.34,3.76,3.18,4.34h0c.32,.1,.65,.16,.99,.19,.9,.14,1.85,.21,2.84,.21,10.74,0,26.28-8.08,39.99-21.79,18.76-18.76,26.98-40.96,18.36-49.58-2.32-2.32-5.63-3.42-9.6-3.42h0c-10.74,0-26.28,8.08-39.99,21.79-3.52,3.52-6.67,7.17-9.41,10.82l-.73-.37c-1.18-.59-2.57-.59-3.75,0L55.42,67.59c-1.42,.71-2.32,2.16-2.32,3.75V251.8c0,2.32,1.88,4.2,4.2,4.2H198.71c2.32,0,4.2-1.88,4.2-4.2V71.34c0-1.59-.9-3.04-2.32-3.75Z"/></svg>