<svg id="Capa_1" data-name="Capa 1" xmlns="http://www.w3.org/2000/svg" viewBox="0 0 32 32"><defs><style>.cls-1{fill:#1f80c1;}</style></defs><path class="cls-1" d="M23,23.52H15a.47.47,0,0,0-.52.51,5.56,5.56,0,0,1-4.35,5.42A6.24,6.24,0,0,1,5.81,29,4.88,4.88,0,0,1,3,25c-.08-.57-.15-1.15-.23-1.72s-.12-1-.19-1.54-.13-1-.2-1.57-.12-1-.19-1.55S2,17.59,2,17.07,1.82,16,1.75,15.5s-.13-1.05-.2-1.58-.12-1-.19-1.54-.13-1-.19-1.55S1,9.79,1,9.27.84,8.21.77,7.68s-.12-1-.19-1.54-.13-1-.19-1.57S.26,3.54.19,3c0-.28-.06-.56-.1-.83a.41.41,0,0,1,.37-.48H19.81a.92.92,0,0,1,.33.06c.15.06.18.22.2.36.08.6.15,1.19.22,1.78s.15,1.19.22,1.78.13,1,.2,1.58.13,1,.19,1.54.13,1.06.2,1.59.13,1,.19,1.54.13,1,.2,1.56.13,1.05.2,1.58.12,1,.19,1.53.15,1.22.23,1.82.12,1,.19,1.55.15,1.2.22,1.81S22.94,22.93,23,23.52Zm-2.8-6.16H4.4l.24,1.94s.07.08.12.1a.37.37,0,0,0,.15,0H20.33c.11,0,.14,0,.13-.15s-.06-.41-.08-.61C20.32,18.23,20.27,17.8,20.21,17.36ZM4,14.19c.08.63.17,1.23.23,1.82,0,.17.08.2.23.2H20.07c-.07-.59-.14-1.17-.22-1.75,0-.26-.05-.26-.31-.26H4ZM3.86,13l.26,0H19.51c.12,0,.16,0,.14-.16l-.21-1.69c0-.11-.06-.16-.19-.16H3.6ZM3.22,7.77v.15c.07.54.13,1.08.2,1.61,0,.26.05.25.3.25H19a.48.48,0,0,0,.17,0s.09-.07.08-.1c-.06-.57-.14-1.14-.2-1.7,0-.17-.09-.21-.25-.21-5.13,0-10.25,0-15.38,0Z"/><path class="cls-1" d="M23.82,24.51h7.85c.26,0,.26,0,.23.26a6,6,0,0,1-2,3.76A5.75,5.75,0,0,1,26.84,30a6.68,6.68,0,0,1-1.09.09H12.09c-.1,0-.24.05-.27-.09s.11-.14.19-.18a6.55,6.55,0,0,0,3.36-4.69c.1-.54.19-.62.74-.62Z"/></svg>