<svg id="Capa_1" data-name="Capa 1" xmlns="http://www.w3.org/2000/svg" viewBox="0 0 32 32"><defs><style>.cls-1{fill:#1680c1;}</style></defs><path class="cls-1" d="M0,21.74c0-.23.06-.47.08-.71A17.54,17.54,0,0,1,.6,18.55a15.71,15.71,0,0,1,1.73-4,17.19,17.19,0,0,1,1.74-2.35A16.18,16.18,0,0,1,8.21,8.89a14.72,14.72,0,0,1,3.56-1.45c.7-.17,1.4-.31,2.11-.43.47-.08,1-.08,1.45-.12l.42,0a19.75,19.75,0,0,1,2.67.2,16.08,16.08,0,0,1,4.39,1.35,16.33,16.33,0,0,1,3.52,2.28,1,1,0,0,1,.09.1l-.87.74L23,13.68c-.23.2-.23.21-.47,0a11.35,11.35,0,0,0-4.08-1.85,12,12,0,0,0-2.07-.27,11.2,11.2,0,0,0-5.6,1.26,11,11,0,0,0-2.38,1.67,11.38,11.38,0,0,0-3,4.57,11.72,11.72,0,0,0-.58,2.61c0,.37,0,.74-.07,1.12l-.13,0H0Z"/><path class="cls-1" d="M28.28,10.54l-.45.55-3.1,3.74c-.84,1-1.68,2.06-2.53,3.08s-1.84,2.22-2.76,3.33c-.32.38-.63.77-.94,1.16a.27.27,0,0,0-.05.15,2.4,2.4,0,0,1-4.08,1.88,2.29,2.29,0,0,1-.69-1.95,2.27,2.27,0,0,1,1.64-2,4.63,4.63,0,0,1,.92-.11.42.42,0,0,0,.2-.1L18.1,18.9l2.6-2.15,2.78-2.3L27,11.59l1.29-1.08Zm-12.21,11a1.17,1.17,0,1,0,0,2.33,1.17,1.17,0,1,0,0-2.33Z"/><path class="cls-1" d="M25,16a13.37,13.37,0,0,1,2.28,6.85H32s.24-6.58-3.95-10.48Z"/></svg>